<svg width="29" height="29" viewBox="0 0 29 29" fill="none" xmlns="http://www.w3.org/2000/svg">
<path d="M5.3111 6.1004V22.408H23.9483V6.1004H5.3111ZM4.14627 3.77075H25.1131C25.7565 3.77075 26.2779 4.29227 26.2779 4.93558V23.5728C26.2779 24.2161 25.7565 24.7376 25.1131 24.7376H4.14627C3.50296 24.7376 2.98145 24.2161 2.98145 23.5728V4.93558C2.98145 4.29227 3.50296 3.77075 4.14627 3.77075ZM7.64075 8.43005H9.9704V10.7597H7.64075V8.43005ZM7.64075 13.0894H9.9704V15.419H7.64075V13.0894ZM7.64075 17.7487H21.6186V20.0783H7.64075V17.7487ZM13.4649 13.0894H15.7945V15.419H13.4649V13.0894ZM13.4649 8.43005H15.7945V10.7597H13.4649V8.43005ZM19.289 8.43005H21.6186V10.7597H19.289V8.43005ZM19.289 13.0894H21.6186V15.419H19.289V13.0894Z" fill="#00FFF5"/>
</svg>
