<svg width="60" height="43" viewBox="0 0 60 43" fill="none" xmlns="http://www.w3.org/2000/svg">
<path d="M0.79541 0.553833C0.381197 0.553833 0.0454102 0.889619 0.0454102 1.30383C0.0454102 1.71805 0.381197 2.05383 0.79541 2.05383V0.553833ZM29.9169 1.30383H30.6669L29.9169 0.553833V1.30383ZM29.9169 36.8564H29.1669L29.9169 37.6064V36.8564ZM59.5688 37.3867C59.8616 37.0938 59.8616 36.6189 59.5688 36.326L54.7958 31.5531C54.5029 31.2602 54.028 31.2602 53.7351 31.5531C53.4422 31.846 53.4422 32.3208 53.7351 32.6137L57.9778 36.8564L53.7351 41.099C53.4422 41.3919 53.4422 41.8668 53.7351 42.1597C54.028 42.4526 54.5029 42.4526 54.7958 42.1597L59.5688 37.3867ZM0.79541 2.05383H2.6155V0.553833H0.79541V2.05383ZM6.25569 2.05383H9.89588V0.553833H6.25569V2.05383ZM13.5361 2.05383H17.1763V0.553833H13.5361V2.05383ZM20.8164 2.05383H24.4566V0.553833H20.8164V2.05383ZM28.0968 2.05383H29.9169V0.553833H28.0968V2.05383ZM29.1669 1.30383V3.52587H30.6669V1.30383H29.1669ZM29.1669 7.96993V12.414H30.6669V7.96993H29.1669ZM29.1669 16.8581V21.3021H30.6669V16.8581H29.1669ZM29.1669 25.7462V30.1903H30.6669V25.7462H29.1669ZM29.1669 34.6343V36.8564H30.6669V34.6343H29.1669ZM29.9169 37.6064H31.737V36.1064H29.9169V37.6064ZM35.3772 37.6064H39.0174V36.1064H35.3772V37.6064ZM42.6576 37.6064H46.2978V36.1064H42.6576V37.6064ZM49.938 37.6064H53.5781V36.1064H49.938V37.6064ZM57.2183 37.6064H59.0384V36.1064H57.2183V37.6064Z" fill="black"/>
<path d="M0.79541 0.553833C0.381197 0.553833 0.0454102 0.889619 0.0454102 1.30383C0.0454102 1.71805 0.381197 2.05383 0.79541 2.05383V0.553833ZM29.9169 1.30383H30.6669L29.9169 0.553833V1.30383ZM29.9169 36.8564H29.1669L29.9169 37.6064V36.8564ZM59.5688 37.3867C59.8616 37.0938 59.8616 36.6189 59.5688 36.326L54.7958 31.5531C54.5029 31.2602 54.028 31.2602 53.7351 31.5531C53.4422 31.846 53.4422 32.3208 53.7351 32.6137L57.9778 36.8564L53.7351 41.099C53.4422 41.3919 53.4422 41.8668 53.7351 42.1597C54.028 42.4526 54.5029 42.4526 54.7958 42.1597L59.5688 37.3867ZM0.79541 2.05383H2.6155V0.553833H0.79541V2.05383ZM6.25569 2.05383H9.89588V0.553833H6.25569V2.05383ZM13.5361 2.05383H17.1763V0.553833H13.5361V2.05383ZM20.8164 2.05383H24.4566V0.553833H20.8164V2.05383ZM28.0968 2.05383H29.9169V0.553833H28.0968V2.05383ZM29.1669 1.30383V3.52587H30.6669V1.30383H29.1669ZM29.1669 7.96993V12.414H30.6669V7.96993H29.1669ZM29.1669 16.8581V21.3021H30.6669V16.8581H29.1669ZM29.1669 25.7462V30.1903H30.6669V25.7462H29.1669ZM29.1669 34.6343V36.8564H30.6669V34.6343H29.1669ZM29.9169 37.6064H31.737V36.1064H29.9169V37.6064ZM35.3772 37.6064H39.0174V36.1064H35.3772V37.6064ZM42.6576 37.6064H46.2978V36.1064H42.6576V37.6064ZM49.938 37.6064H53.5781V36.1064H49.938V37.6064ZM57.2183 37.6064H59.0384V36.1064H57.2183V37.6064Z" fill="url(#paint0_linear_108_2220)"/>
<defs>
<linearGradient id="paint0_linear_108_2220" x1="4.00446" y1="4.75512" x2="51.0348" y2="45.4687" gradientUnits="userSpaceOnUse">
<stop stop-color="#CA00C1"/>
<stop offset="0.498404" stop-color="white"/>
<stop offset="0.744195" stop-color="#FA00FF"/>
<stop offset="1" stop-color="#00F7E4"/>
</linearGradient>
</defs>
</svg>
