<svg width="60" height="43" viewBox="0 0 60 43" fill="none" xmlns="http://www.w3.org/2000/svg">
<path d="M0.79541 40.6588C0.381197 40.6588 0.0454102 40.9946 0.0454102 41.4088C0.0454102 41.823 0.381197 42.1588 0.79541 42.1588V40.6588ZM29.9169 41.4088V42.1588L30.6669 41.4088H29.9169ZM29.9169 5.85632V5.10632L29.1669 5.85632H29.9169ZM59.5688 6.38665C59.8616 6.09376 59.8616 5.61889 59.5688 5.32599L54.7958 0.553022C54.5029 0.260129 54.028 0.260129 53.7351 0.553022C53.4422 0.845916 53.4422 1.32079 53.7351 1.61368L57.9778 5.85632L53.7351 10.099C53.4422 10.3919 53.4422 10.8667 53.7351 11.1596C54.028 11.4525 54.5029 11.4525 54.7958 11.1596L59.5688 6.38665ZM0.79541 42.1588H2.6155V40.6588H0.79541V42.1588ZM6.25569 42.1588H9.89588V40.6588H6.25569V42.1588ZM13.5361 42.1588H17.1763V40.6588H13.5361V42.1588ZM20.8164 42.1588H24.4566V40.6588H20.8164V42.1588ZM28.0968 42.1588H29.9169V40.6588H28.0968V42.1588ZM30.6669 41.4088V39.1867H29.1669V41.4088H30.6669ZM30.6669 34.7427V30.2986H29.1669V34.7427H30.6669ZM30.6669 25.8546V21.4105H29.1669V25.8546H30.6669ZM30.6669 16.9665V12.5224H29.1669V16.9665H30.6669ZM30.6669 8.07835V5.85632H29.1669V8.07835H30.6669ZM29.9169 6.60632H31.737V5.10632H29.9169V6.60632ZM35.3772 6.60632H39.0174V5.10632H35.3772V6.60632ZM42.6576 6.60632H46.2978V5.10632H42.6576V6.60632ZM49.938 6.60632H53.5781V5.10632H49.938V6.60632ZM57.2183 6.60632H59.0384V5.10632H57.2183V6.60632Z" fill="black"/>
<path d="M0.79541 40.6588C0.381197 40.6588 0.0454102 40.9946 0.0454102 41.4088C0.0454102 41.823 0.381197 42.1588 0.79541 42.1588V40.6588ZM29.9169 41.4088V42.1588L30.6669 41.4088H29.9169ZM29.9169 5.85632V5.10632L29.1669 5.85632H29.9169ZM59.5688 6.38665C59.8616 6.09376 59.8616 5.61889 59.5688 5.32599L54.7958 0.553022C54.5029 0.260129 54.028 0.260129 53.7351 0.553022C53.4422 0.845916 53.4422 1.32079 53.7351 1.61368L57.9778 5.85632L53.7351 10.099C53.4422 10.3919 53.4422 10.8667 53.7351 11.1596C54.028 11.4525 54.5029 11.4525 54.7958 11.1596L59.5688 6.38665ZM0.79541 42.1588H2.6155V40.6588H0.79541V42.1588ZM6.25569 42.1588H9.89588V40.6588H6.25569V42.1588ZM13.5361 42.1588H17.1763V40.6588H13.5361V42.1588ZM20.8164 42.1588H24.4566V40.6588H20.8164V42.1588ZM28.0968 42.1588H29.9169V40.6588H28.0968V42.1588ZM30.6669 41.4088V39.1867H29.1669V41.4088H30.6669ZM30.6669 34.7427V30.2986H29.1669V34.7427H30.6669ZM30.6669 25.8546V21.4105H29.1669V25.8546H30.6669ZM30.6669 16.9665V12.5224H29.1669V16.9665H30.6669ZM30.6669 8.07835V5.85632H29.1669V8.07835H30.6669ZM29.9169 6.60632H31.737V5.10632H29.9169V6.60632ZM35.3772 6.60632H39.0174V5.10632H35.3772V6.60632ZM42.6576 6.60632H46.2978V5.10632H42.6576V6.60632ZM49.938 6.60632H53.5781V5.10632H49.938V6.60632ZM57.2183 6.60632H59.0384V5.10632H57.2183V6.60632Z" fill="url(#paint0_linear_108_2221)"/>
<defs>
<linearGradient id="paint0_linear_108_2221" x1="3.98467" y1="11.8477" x2="69.6293" y2="44.3812" gradientUnits="userSpaceOnUse">
<stop stop-color="#CA00C1"/>
<stop offset="0.498404" stop-color="white"/>
<stop offset="0.744195" stop-color="#FA00FF"/>
<stop offset="1" stop-color="#00F7E4"/>
</linearGradient>
</defs>
</svg>
