<svg t="1704443373409" class="icon" viewBox="0 0 1024 1024" version="1.1" xmlns="http://www.w3.org/2000/svg" p-id="8364" width="16" height="16"><path d="M488.768 816.448A327.68 327.68 0 0 0 637.184 196.48 391.68 391.68 0 0 1 196.48 637.184a327.936 327.936 0 0 0 292.288 179.264zM153.728 562.624a327.68 327.68 0 0 0 408.896-408.896l-17.344-57.28 57.216 17.408a391.872 391.872 0 0 1-113.728 766.592 391.872 391.872 0 0 1-374.912-277.952l-17.408-57.216 57.28 17.28z m170.432-361.984l-56.448 29.696 " fill="#FFFFFF" p-id="8365"></path></svg>