<svg width="29" height="29" viewBox="0 0 29 29" fill="none" xmlns="http://www.w3.org/2000/svg">

<circle cx="14.5" cy="14.5" r="14" stroke="#A6A5A4"/>
<path d="M20.4114 9.10549C22.3204 11.94 23.2749 15.1216 22.9278 18.7949C22.9278 18.7949 22.9278 18.8238 22.8989 18.8238C21.6262 19.7783 20.18 20.5014 18.6471 20.9641C18.6182 20.9931 18.6182 20.9641 18.5893 20.9641C18.2711 20.5014 17.9819 20.0386 17.7215 19.5469C17.7215 19.518 17.7215 19.518 17.7215 19.489L17.7505 19.4601C18.2132 19.2866 18.6471 19.0841 19.081 18.8238C19.081 18.8238 19.1099 18.8238 19.1099 18.7949C19.1099 18.7659 19.1099 18.7659 19.081 18.737C18.9942 18.6792 18.9074 18.6213 18.8206 18.5346C18.7917 18.5346 18.7917 18.5346 18.7628 18.5346C16.0151 19.8072 13.007 19.8072 10.2303 18.5346C10.2014 18.5346 10.1725 18.5346 10.1725 18.5346C10.0857 18.6213 9.99896 18.6792 9.91219 18.737C9.88326 18.7659 9.88326 18.7659 9.88326 18.7949C9.88326 18.8238 9.88326 18.8238 9.91219 18.8238C10.3171 19.0841 10.7799 19.2866 11.2427 19.4601C11.2427 19.4601 11.2427 19.489 11.2716 19.489C11.2716 19.518 11.2716 19.518 11.2716 19.5469C11.0113 20.0386 10.722 20.5014 10.4039 20.9641C10.375 20.9641 10.346 20.9931 10.346 20.9641C8.81309 20.5014 7.36691 19.7783 6.09428 18.8238C6.06535 18.8238 6.06535 18.7949 6.06535 18.7949C5.77612 15.6133 6.38351 12.4028 8.5817 9.10549C8.5817 9.10549 8.5817 9.10549 8.61063 9.10549C9.70972 8.58486 10.8667 8.23778 12.0525 8.03532C12.0815 8.00639 12.1104 8.03532 12.1104 8.03532C12.2839 8.32455 12.4285 8.64271 12.5442 8.93195C13.8458 8.72948 15.1473 8.72948 16.4489 8.93195C16.5646 8.64271 16.7092 8.32455 16.8828 8.03532C16.8828 8.03532 16.9117 8.00639 16.9406 8.03532C18.1265 8.23778 19.2834 8.58486 20.3825 9.10549C20.4114 9.10549 20.4114 9.10549 20.4114 9.10549ZM11.6765 16.857C12.5153 16.857 13.2095 16.0761 13.2095 15.1505C13.2095 14.196 12.5442 13.444 11.6765 13.444C10.8377 13.444 10.1436 14.196 10.1436 15.1505C10.1436 16.0761 10.8377 16.857 11.6765 16.857ZM17.3166 16.857C18.1843 16.857 18.8496 16.0761 18.8496 15.1505C18.8785 14.196 18.1843 13.444 17.3166 13.444C16.4778 13.444 15.8126 14.196 15.8126 15.1505C15.8126 16.0761 16.4778 16.857 17.3166 16.857Z" fill="#A6A5A4"/>

</svg>
