<svg width="29" height="29" viewBox="0 0 29 29" fill="none" xmlns="http://www.w3.org/2000/svg">
<g opacity="0.6">
<circle cx="14.5" cy="14.5" r="14" stroke="#FFFEFB"/>
<path d="M12.5456 21.2722C12.3086 21.2973 12.1076 21.3224 11.9066 21.344C10.8619 21.4481 9.95007 21.1645 9.26081 20.3496C9.04541 20.0947 8.92336 19.7644 8.74027 19.4808C8.45667 19.0357 8.16589 18.5941 7.85357 18.1669C7.74587 18.0197 7.5592 17.9336 7.4156 17.8079C7.36893 17.7684 7.35457 17.6931 7.32227 17.632C7.38688 17.6069 7.44791 17.5638 7.51253 17.5566C8.33821 17.4813 8.91977 17.8618 9.32543 18.5474C9.8316 19.4018 10.5639 19.8685 11.5583 19.8685C11.8455 19.8685 12.1327 19.7716 12.4163 19.707C12.4702 19.6926 12.5348 19.6101 12.542 19.549C12.5922 19.1757 12.6389 18.8023 12.8112 18.4613C12.8758 18.3356 12.9512 18.2172 13.0266 18.0879C12.7358 18.0305 12.4558 17.9874 12.1794 17.9192C10.905 17.5961 9.85314 16.9571 9.24286 15.7437C9.00593 15.2699 8.8731 14.7601 8.85515 14.2288C8.82643 13.4103 8.8372 12.5882 9.00234 11.7805C9.1208 11.2133 9.3362 10.6856 9.76698 10.2763C9.86032 10.1866 9.87827 10.1076 9.82801 9.97119C9.58749 9.29988 9.56236 8.6178 9.76698 7.93214C9.81006 7.78495 9.84955 7.63776 9.89263 7.4834C10.8763 7.67007 11.4614 8.3342 12.0107 9.07013C12.5779 8.65011 13.2492 8.61421 13.9025 8.57114C14.678 8.52088 15.457 8.53165 16.2288 8.65729C16.6309 8.72191 16.8786 8.80448 17.2699 9.03782C17.6073 8.6896 17.9232 8.33779 18.2714 8.01829C18.5479 7.76341 18.8925 7.60186 19.2658 7.51571C19.3699 7.49058 19.4238 7.50135 19.4669 7.61622C19.7577 8.40959 19.8007 9.19937 19.4812 9.99273C19.4382 10.1004 19.4417 10.1758 19.5315 10.262C20.0484 10.7538 20.2854 11.3892 20.3643 12.0749C20.4361 12.7103 20.4756 13.3493 20.4756 13.9883C20.4756 14.8965 20.2064 15.7294 19.6356 16.4438C19.2335 16.9499 18.713 17.3125 18.1243 17.5854C17.5535 17.8474 16.9575 17.9982 16.3401 18.0772C16.3257 18.0808 16.3114 18.0915 16.2862 18.1023C16.7098 18.709 16.778 19.3911 16.7709 20.0983C16.7601 21.1286 16.7637 22.1553 16.7709 23.1856C16.7709 23.3471 16.7242 23.3866 16.5662 23.3866C15.2918 23.3794 14.0174 23.3794 12.743 23.3866C12.585 23.3866 12.5348 23.3364 12.5348 23.182C12.542 22.6256 12.5384 22.0691 12.5384 21.5127C12.5456 21.4301 12.5456 21.3583 12.5456 21.2722Z" fill="#FFFEFB"/>
</g>
</svg>
