<svg width="29" height="29" viewBox="0 0 29 29" fill="none" xmlns="http://www.w3.org/2000/svg">
<g opacity="0.6">
<circle cx="14.5" cy="14.5" r="14" stroke="#FFFEFB"/>
<path d="M15.1631 14.1042C15.1631 16.9272 12.8821 19.2083 10.0816 19.2083C7.28106 19.2083 5 16.9498 5 14.1042C5 11.2585 7.28106 9 10.0816 9C12.8821 9 15.1631 11.2811 15.1631 14.1042Z" fill="#FFFEFB"/>
<path d="M20.7416 14.1045C20.7416 16.7695 19.6124 18.915 18.2121 18.915C16.8119 18.915 15.6826 16.7695 15.6826 14.1045C15.6826 11.4395 16.8119 9.29395 18.2121 9.29395C19.5898 9.29395 20.7416 11.4621 20.7416 14.1045Z" fill="#FFFEFB"/>
<path d="M23.0001 14.1037C23.0001 16.4751 22.5936 18.4174 22.0967 18.4174C21.5999 18.4174 21.1934 16.4751 21.1934 14.1037C21.1934 11.7323 21.5999 9.79004 22.0967 9.79004C22.6162 9.79004 23.0001 11.7323 23.0001 14.1037Z" fill="#FFFEFB"/>
</g>
</svg>
