<svg width="29" height="29" viewBox="0 0 29 29" fill="none" xmlns="http://www.w3.org/2000/svg">
<g opacity="0.6">
<circle cx="14.5" cy="14.5" r="14" stroke="#FFFEFB"/>
<path fill-rule="evenodd" clip-rule="evenodd" d="M6.09992 13.5964C10.3949 11.7618 13.2589 10.5523 14.6919 9.96797C18.7834 8.2995 19.6335 8.00967 20.1877 8.0001C20.3095 7.998 20.5821 8.02761 20.7586 8.16804C20.9076 8.28661 20.9486 8.44679 20.9683 8.55921C20.9879 8.67163 21.0123 8.92773 20.9929 9.12784C20.7712 11.4118 19.8118 16.9545 19.3237 19.5127C19.1172 20.5951 18.7105 20.958 18.3169 20.9936C17.4613 21.0707 16.8116 20.4392 15.9829 19.9067C14.6862 19.0733 13.9537 18.5545 12.695 17.7413C11.2404 16.8015 12.1834 16.285 13.0124 15.4409C13.2293 15.22 16.999 11.8583 17.0719 11.5533C17.0811 11.5152 17.0895 11.373 17.0034 11.298C16.9172 11.2229 16.7901 11.2486 16.6983 11.269C16.5683 11.2979 14.4968 12.6403 10.4839 15.2961C9.89591 15.6919 9.36333 15.8848 8.88616 15.8747C8.36012 15.8635 7.34822 15.5831 6.59598 15.3433C5.67333 15.0493 4.94002 14.8938 5.00388 14.3944C5.03714 14.1343 5.40248 13.8683 6.09992 13.5964Z" fill="#FFFEFB"/>
</g>
</svg>
