<svg width="29" height="29" viewBox="0 0 29 29" fill="none" xmlns="http://www.w3.org/2000/svg">
<circle cx="14.5" cy="14.5" r="14" stroke="#A6A5A4"/>
<path d="M22.4521 9.84969C21.8667 10.1001 21.2357 10.2646 20.582 10.3433C21.251 9.96414 21.7679 9.36323 22.0111 8.64071C21.3802 8.99839 20.6808 9.24877 19.9434 9.39185C19.3429 8.77663 18.4991 8.41895 17.5412 8.41895C15.7548 8.41895 14.2952 9.79246 14.2952 11.4879C14.2952 11.7311 14.3256 11.9672 14.3788 12.1889C11.6725 12.0602 9.26272 10.8369 7.65871 8.98409C7.37744 9.43477 7.2178 9.96414 7.2178 10.5221C7.2178 11.588 7.78794 12.5323 8.66977 13.0689C8.13003 13.0689 7.6283 12.9258 7.18739 12.7112C7.18739 12.7112 7.18739 12.7112 7.18739 12.7326C7.18739 14.2206 8.31247 15.4653 9.80245 15.7443C9.52878 15.8159 9.23991 15.8516 8.94343 15.8516C8.73818 15.8516 8.53293 15.8302 8.33528 15.7944C8.74578 17.0034 9.93929 17.9048 11.3761 17.9262C10.2662 18.756 8.85981 19.2425 7.32422 19.2425C7.06576 19.2425 6.80729 19.2282 6.54883 19.1996C7.99319 20.0723 9.71123 20.5802 11.5509 20.5802C17.5412 20.5802 20.8328 15.9017 20.8328 11.8456C20.8328 11.7096 20.8328 11.5809 20.8252 11.445C21.4638 11.0157 22.0111 10.4721 22.4521 9.84969Z" fill="#A6A5A4"/>
</svg>
