<svg width="29" height="29" viewBox="0 0 29 29" fill="none" xmlns="http://www.w3.org/2000/svg">

<circle cx="14.5" cy="14.5" r="14" stroke="#A6A5A4"/>
<path d="M12.9101 17.3729L17.037 14.9674L12.9101 12.5619V17.3729ZM22.1022 11.0945C22.2056 11.4714 22.2771 11.9765 22.3248 12.618C22.3805 13.2595 22.4043 13.8127 22.4043 14.2938L22.4521 14.9674C22.4521 16.7234 22.3248 18.0144 22.1022 18.8403C21.9034 19.562 21.4422 20.027 20.7266 20.2275C20.3528 20.3317 19.669 20.4039 18.6194 20.452C17.5857 20.5081 16.6394 20.5322 15.7647 20.5322L14.5004 20.5803C11.1687 20.5803 9.09334 20.452 8.27433 20.2275C7.55868 20.027 7.09749 19.562 6.8987 18.8403C6.79533 18.4634 6.72376 17.9583 6.67605 17.3168C6.62039 16.6753 6.59654 16.122 6.59654 15.6409L6.54883 14.9674C6.54883 13.2114 6.67605 11.9204 6.8987 11.0945C7.09749 10.3728 7.55868 9.90776 8.27433 9.7073C8.64805 9.60306 9.33189 9.5309 10.3815 9.48279C11.4152 9.42666 12.3615 9.4026 13.2361 9.4026L14.5004 9.35449C17.8322 9.35449 19.9075 9.48279 20.7266 9.7073C21.4422 9.90776 21.9034 10.3728 22.1022 11.0945Z" fill="#A6A5A4"/>

</svg>
