<svg width="24" height="28" viewBox="0 0 24 28" fill="none" xmlns="http://www.w3.org/2000/svg">
<mask id="mask0_2089_413" style="mask-type:luminance" maskUnits="userSpaceOnUse" x="0" y="0" width="24" height="28">
<path d="M23.1975 0H0V27.195H23.1975V0Z" fill="white"/>
</mask>
<g mask="url(#mask0_2089_413)">
<path d="M7.73601 20.3977L3.86536 18.1275V13.595L0 11.3301V20.3977L11.5987 27.1951V18.1275L7.73601 15.8652V20.3977Z" fill="#89D1CC"/>
<path d="M11.5991 13.5947L7.73633 15.865L11.5991 18.1272L15.4697 15.865L11.5991 13.5947Z" fill="#9FB3CF"/>
<path d="M3.86272 9.05957L0 11.3298L3.86272 13.5921L7.73337 11.3298L3.86272 9.05957Z" fill="#9FB3CF"/>
<path d="M19.3344 9.05957L15.4717 11.3298L19.3344 13.5921L23.1971 11.3298L19.3344 9.05957Z" fill="#9FB3CF"/>
<path d="M11.5991 4.53223L7.73633 6.79449L11.5991 9.06472L15.4697 6.79449L11.5991 4.53223Z" fill="#9FB3CF"/>
<path d="M3.8623 13.595V18.1275L7.73295 20.3977V11.3301" fill="#FFFEFB"/>
<path d="M11.5986 9.06809V13.6006L15.4693 15.8628V6.79785" fill="#FFFEFB"/>
<path d="M19.3344 13.6V18.1325L15.4717 20.3948V11.3271" fill="#E0F2F3"/>
<path d="M11.5991 9.06809V13.6006L7.73633 15.8628V6.79785" fill="#E0F2F3"/>
<path d="M11.5987 0L0 6.79742L11.5987 13.6028L23.1975 6.79742L11.5987 0Z" fill="#DBD7EC"/>
<path d="M0 6.79785V11.3303L3.86272 13.6006V18.1331L7.73337 20.3953V15.8628L11.5961 18.1331V13.6006L0 6.79785Z" fill="#F2EFE8"/>
<path d="M11.5983 13.6006V18.1331L15.469 15.8628V20.3953L19.3317 18.1331V13.6006L23.1944 11.3303V6.79785L11.5957 13.6032L11.5983 13.6006Z" fill="#B2DCBD"/>
<path d="M7.73633 20.3977L11.5991 18.1355L7.73633 15.8652V20.3977Z" fill="#89D1CC"/>
<path d="M19.3349 13.595V18.1275L15.4722 20.3977V15.8652L11.6016 18.1275V27.1951L23.2003 20.3977V11.3301L19.3376 13.5923L19.3349 13.595Z" fill="#3188B2"/>
</g>
</svg>
