<svg width="42" height="48" viewBox="0 0 32 37" fill="none" xmlns="http://www.w3.org/2000/svg">
<g id="Layer_3" clip-path="url(#clip0_4837_647)">
<path id="Vector" d="M10.6699 27.7526L5.33008 24.6636V18.4953L0 15.416V27.7526L16 37.0002V24.6636L10.6699 21.5843V27.7526Z" fill="#7DB2E0"/>
<path id="Vector_2" d="M16 18.4951L10.6699 21.5842L16 24.6634L21.3398 21.5842L16 18.4951Z" fill="#9E9FCE"/>
<path id="Vector_3" d="M5.33008 12.3267L0 15.4157L5.33008 18.495L10.6699 15.4157L5.33008 12.3267Z" fill="#9E9FCE"/>
<path id="Vector_4" d="M26.6699 12.3267L21.3398 15.4157L26.6699 18.495L32 15.4157L26.6699 12.3267Z" fill="#9E9FCE"/>
<path id="Vector_5" d="M16 6.16846L10.6699 9.24772L16 12.3368L21.3398 9.24772L16 6.16846Z" fill="#9E9FCE"/>
<path id="Vector_6" d="M5.33008 18.4953V24.6636L10.6699 27.7526V15.416" fill="white"/>
<path id="Vector_7" d="M16 12.3366V18.5049L21.3398 21.5842V9.24756" fill="white"/>
<path id="Vector_8" d="M26.6699 18.5051V24.6733L21.3398 27.7526V15.416" fill="#E0E6F3"/>
<path id="Vector_9" d="M16 12.3366V18.5049L10.6699 21.5842V9.24756" fill="#E0E6F3"/>
<path id="Vector_10" d="M16 0L0 9.24756L16 18.5049L32 9.24756L16 0Z" fill="#C7E6F9"/>
<path id="Vector_11" d="M0 9.24756V15.4159L5.33008 18.5049V24.6732L10.6699 27.7524V21.5842L16 24.6732V18.5049L0 9.24756Z" fill="#BDDAD3"/>
<path id="Vector_12" d="M16 18.5049V24.6732L21.3398 21.5842V27.7524L26.6699 24.6732V18.5049L32 15.4159V9.24756L16 18.5049Z" fill="#BEBED9"/>
<path id="Vector_13" d="M10.6699 27.7523L16 24.673L10.6699 21.584V27.7523Z" fill="#7DB2E0"/>
<path id="Vector_14" d="M26.6699 18.4953V24.6636L21.3398 27.7526V21.5843V21.5941V21.5843L16 24.6636V37.0002L32 27.7526V15.416L26.6699 18.4953Z" fill="#5D6BB2"/>
</g>
<defs>
<clipPath id="clip0_4837_647">
<rect width="42" height="48" fill="white"/>
</clipPath>
</defs>
</svg>
