<svg width="40" height="40" viewBox="0 0 40 40" fill="none" xmlns="http://www.w3.org/2000/svg">
<circle cx="20" cy="20" r="19.5" stroke="#6AD1C5"/>
<path d="M34.006 28.3711H30.0581V27.4925H33.1274V24.4115H34.006V28.3711Z" fill="#3EDFCF"/>
<path d="M27.7496 28.3713H20.8261V27.4927H27.7496V28.3713ZM18.5182 28.3713H11.5947V27.4927H18.5182V28.3713Z" fill="#3EDFCF"/>
<path d="M9.28729 28.3711H5.33936V24.4115H6.21797V27.4925H9.28729V28.3711Z" fill="#3EDFCF"/>
<path d="M6.21798 14.981H5.33936V22.0568H6.21798V14.981Z" fill="#3EDFCF"/>
<path d="M6.21797 12.6146H5.33936V8.66663H9.28729V9.54525H6.21797V12.6146Z" fill="#3EDFCF"/>
<path d="M27.7496 9.54524H20.8261V8.66663H27.7496V9.54524ZM18.5182 9.54524H11.5947V8.66663H18.5182V9.54524Z" fill="#3EDFCF"/>
<path d="M34.006 12.6146H33.1274V9.54525H30.0581V8.66663H34.006V12.6146Z" fill="#3EDFCF"/>
<path d="M34.0065 14.981H33.1279V22.0568H34.0065V14.981Z" fill="#3EDFCF"/>
<mask id="mask0_255_2099" style="mask-type:luminance" maskUnits="userSpaceOnUse" x="14" y="13" width="12" height="11">
<path d="M19.6789 23.9898C22.7004 23.9898 25.1497 21.5404 25.1497 18.519C25.1497 15.4975 22.7004 13.0481 19.6789 13.0481C16.6574 13.0481 14.208 15.4975 14.208 18.519C14.208 21.5404 16.6574 23.9898 19.6789 23.9898Z" fill="white"/>
</mask>
<g mask="url(#mask0_255_2099)">
<path d="M26.0403 12.8257H13.3179V13.4114H26.0403V12.8257Z" fill="#3EDFCF"/>
<path d="M26.0403 14.1727H13.3179V14.7585H26.0403V14.1727Z" fill="#3EDFCF"/>
<path d="M26.0403 15.5201H13.3179V16.1059H26.0403V15.5201Z" fill="#3EDFCF"/>
<path d="M26.0403 16.879H13.3179V17.4648H26.0403V16.879Z" fill="#3EDFCF"/>
<path d="M26.0403 18.2264H13.3179V18.8122H26.0403V18.2264Z" fill="#3EDFCF"/>
<path d="M26.0403 19.5735H13.3179V20.1592H26.0403V19.5735Z" fill="#3EDFCF"/>
<path d="M26.0403 20.9207H13.3179V21.5064H26.0403V20.9207Z" fill="#3EDFCF"/>
<path d="M26.0403 22.2681H13.3179V22.8538H26.0403V22.2681Z" fill="#3EDFCF"/>
<path d="M26.0403 23.615H13.3179V24.2007H26.0403V23.615Z" fill="#3EDFCF"/>
</g>
<path d="M24.1075 28.9803H15.2393V31.3116H24.1075V28.9803Z" fill="#3EDFCF"/>
<path d="M28.4293 30.48H10.9272V31.6515H28.4293V30.48Z" fill="#3EDFCF"/>
</svg>
