<svg width="40" height="40" viewBox="0 0 40 40" fill="none" xmlns="http://www.w3.org/2000/svg">
<circle cx="20" cy="20" r="19.5" stroke="#6AD1C5"/>
<path d="M28.9408 33.2703H5.85538C5.57021 33.2703 5.33936 33.0394 5.33936 32.7543C5.33936 32.4691 5.57021 32.2382 5.85538 32.2382H28.9408C31.1679 32.2382 32.974 30.4322 32.974 28.2051C32.974 25.978 31.1679 24.1719 28.9408 24.1719H15.755C12.944 24.1719 10.6626 21.8905 10.6626 19.0796C10.6626 16.2686 12.944 13.9872 15.755 13.9872H33.49C33.7752 13.9872 34.006 14.218 34.006 14.5032C34.006 14.7884 33.7752 15.0192 33.49 15.0192H15.755C13.5143 15.0192 11.6811 16.8389 11.6811 19.0931C11.6811 21.3474 13.5007 23.167 15.755 23.167H28.9408C31.7246 23.167 33.9924 25.4348 33.9924 28.2187C33.9924 31.0025 31.7246 33.2703 28.9408 33.2703Z" fill="#3EDFCF"/>
<path d="M30.72 13.58C32.445 13.58 33.8433 12.1817 33.8433 10.4567C33.8433 8.73173 32.445 7.33337 30.72 7.33337C28.995 7.33337 27.5967 8.73173 27.5967 10.4567C27.5967 12.1817 28.995 13.58 30.72 13.58Z" fill="#3EDFCF"/>
<path d="M24.0384 13.58C25.7633 13.58 27.1617 12.1817 27.1617 10.4567C27.1617 8.73173 25.7633 7.33337 24.0384 7.33337C22.3134 7.33337 20.915 8.73173 20.915 10.4567C20.915 12.1817 22.3134 13.58 24.0384 13.58Z" fill="#3EDFCF"/>
<path d="M17.3167 13.58C19.0416 13.58 20.44 12.1817 20.44 10.4567C20.44 8.73173 19.0416 7.33337 17.3167 7.33337C15.5917 7.33337 14.1934 8.73173 14.1934 10.4567C14.1934 12.1817 15.5917 13.58 17.3167 13.58Z" fill="#3EDFCF"/>
<path d="M10.9339 31.3831C12.6588 31.3831 14.0572 29.9848 14.0572 28.2598C14.0572 26.5348 12.6588 25.1365 10.9339 25.1365C9.2089 25.1365 7.81055 26.5348 7.81055 28.2598C7.81055 29.9848 9.2089 31.3831 10.9339 31.3831Z" fill="#3EDFCF"/>
</svg>
