<svg width="40" height="40" viewBox="0 0 40 40" fill="none" xmlns="http://www.w3.org/2000/svg">
<circle cx="20" cy="20" r="19.5" stroke="#6AD1C5"/>
<path d="M23.4679 16.3621H14.5063V25.3236H23.4679V16.3621Z" fill="#3EDFCF"/>
<path fill-rule="evenodd" clip-rule="evenodd" d="M22.4766 17.3534H15.4977V24.3323H22.4766V17.3534ZM23.4679 16.3621V25.3236H14.5063V16.3621H23.4679Z" fill="#3EDFCF"/>
<path fill-rule="evenodd" clip-rule="evenodd" d="M27.1355 5.35828V11.7325H21.2569V18.5131H20.2656V10.7412H26.1442V5.35828H27.1355Z" fill="#3EDFCF"/>
<path fill-rule="evenodd" clip-rule="evenodd" d="M9.07357 13.5366H18.1739V20.1884H17.1826V14.5279H10.0649V18.7311H3.96826V17.7398H9.07357V13.5366Z" fill="#3EDFCF"/>
<path fill-rule="evenodd" clip-rule="evenodd" d="M24.7469 22.9242H19.6416V21.9329H25.7382V27.5338H35.3144V28.5251H24.7469V22.9242Z" fill="#3EDFCF"/>
<path fill-rule="evenodd" clip-rule="evenodd" d="M11.591 22.2107H17.1226V23.202H12.5823V27.2565H15.1003V31.3209H8.72607V30.3296H14.1089V28.2478H11.591V22.2107Z" fill="#3EDFCF"/>
<path fill-rule="evenodd" clip-rule="evenodd" d="M20.2656 23.5492H21.2569V30.0523H27.195V31.0436H20.2656V23.5492Z" fill="#3EDFCF"/>
<path d="M26.551 6.51796C27.2463 6.51796 27.8099 5.95429 27.8099 5.25898C27.8099 4.56366 27.2463 4 26.551 4C25.8557 4 25.292 4.56366 25.292 5.25898C25.292 5.95429 25.8557 6.51796 26.551 6.51796Z" fill="#3EDFCF"/>
<path fill-rule="evenodd" clip-rule="evenodd" d="M26.551 5.52663C26.6988 5.52663 26.8186 5.4068 26.8186 5.25898C26.8186 5.11116 26.6988 4.99132 26.551 4.99132C26.4031 4.99132 26.2833 5.11116 26.2833 5.25898C26.2833 5.4068 26.4031 5.52663 26.551 5.52663ZM27.8099 5.25898C27.8099 5.95429 27.2463 6.51796 26.551 6.51796C25.8557 6.51796 25.292 5.95429 25.292 5.25898C25.292 4.56366 25.8557 4 26.551 4C27.2463 4 27.8099 4.56366 27.8099 5.25898Z" fill="#3EDFCF"/>
<path d="M36.0773 29.2691C36.7727 29.2691 37.3363 28.7054 37.3363 28.0101C37.3363 27.3148 36.7727 26.7511 36.0773 26.7511C35.382 26.7511 34.8184 27.3148 34.8184 28.0101C34.8184 28.7054 35.382 29.2691 36.0773 29.2691Z" fill="#3EDFCF"/>
<path fill-rule="evenodd" clip-rule="evenodd" d="M36.0773 28.2777C36.2252 28.2777 36.345 28.1579 36.345 28.0101C36.345 27.8623 36.2252 27.7424 36.0773 27.7424C35.9295 27.7424 35.8097 27.8623 35.8097 28.0101C35.8097 28.1579 35.9295 28.2777 36.0773 28.2777ZM37.3363 28.0101C37.3363 28.7054 36.7727 29.2691 36.0773 29.2691C35.382 29.2691 34.8184 28.7054 34.8184 28.0101C34.8184 27.3148 35.382 26.7511 36.0773 26.7511C36.7727 26.7511 37.3363 27.3148 37.3363 28.0101Z" fill="#3EDFCF"/>
<path d="M27.3044 31.9752C27.9997 31.9752 28.5634 31.4116 28.5634 30.7163C28.5634 30.0209 27.9997 29.4573 27.3044 29.4573C26.6091 29.4573 26.0454 30.0209 26.0454 30.7163C26.0454 31.4116 26.6091 31.9752 27.3044 31.9752Z" fill="#3EDFCF"/>
<path fill-rule="evenodd" clip-rule="evenodd" d="M27.3044 30.9839C27.4522 30.9839 27.572 30.8641 27.572 30.7163C27.572 30.5684 27.4522 30.4486 27.3044 30.4486C27.1566 30.4486 27.0367 30.5684 27.0367 30.7163C27.0367 30.8641 27.1566 30.9839 27.3044 30.9839ZM28.5634 30.7163C28.5634 31.4116 27.9997 31.9752 27.3044 31.9752C26.6091 31.9752 26.0454 31.4116 26.0454 30.7163C26.0454 30.0209 26.6091 29.4573 27.3044 29.4573C27.9997 29.4573 28.5634 30.0209 28.5634 30.7163Z" fill="#3EDFCF"/>
<path d="M8.13154 32.0149C8.82685 32.0149 9.39052 31.4512 9.39052 30.7559C9.39052 30.0606 8.82685 29.4969 8.13154 29.4969C7.43622 29.4969 6.87256 30.0606 6.87256 30.7559C6.87256 31.4512 7.43622 32.0149 8.13154 32.0149Z" fill="#3EDFCF"/>
<path fill-rule="evenodd" clip-rule="evenodd" d="M8.13154 31.0236C8.27936 31.0236 8.39919 30.9037 8.39919 30.7559C8.39919 30.6081 8.27936 30.4883 8.13154 30.4883C7.98371 30.4883 7.86388 30.6081 7.86388 30.7559C7.86388 30.9037 7.98371 31.0236 8.13154 31.0236ZM9.39052 30.7559C9.39052 31.4512 8.82685 32.0149 8.13154 32.0149C7.43622 32.0149 6.87256 31.4512 6.87256 30.7559C6.87256 30.0606 7.43622 29.4969 8.13154 29.4969C8.82685 29.4969 9.39052 30.0606 9.39052 30.7559Z" fill="#3EDFCF"/>
<path d="M3.92841 19.4942C4.62373 19.4942 5.18739 18.9305 5.18739 18.2352C5.18739 17.5399 4.62373 16.9762 3.92841 16.9762C3.2331 16.9762 2.66943 17.5399 2.66943 18.2352C2.66943 18.9305 3.2331 19.4942 3.92841 19.4942Z" fill="#3EDFCF"/>
<path fill-rule="evenodd" clip-rule="evenodd" d="M3.92841 18.5028C4.07623 18.5028 4.19607 18.383 4.19607 18.2352C4.19607 18.0874 4.07623 17.9675 3.92841 17.9675C3.78059 17.9675 3.66075 18.0874 3.66075 18.2352C3.66075 18.383 3.78059 18.5028 3.92841 18.5028ZM5.18739 18.2352C5.18739 18.9305 4.62373 19.4942 3.92841 19.4942C3.2331 19.4942 2.66943 18.9305 2.66943 18.2352C2.66943 17.5399 3.2331 16.9762 3.92841 16.9762C4.62373 16.9762 5.18739 17.5399 5.18739 18.2352Z" fill="#3EDFCF"/>
<path d="M16.0424 24.3413C16.3378 24.3413 16.5774 24.1018 16.5774 23.8063C16.5774 23.5108 16.3378 23.2712 16.0424 23.2712C15.7469 23.2712 15.5073 23.5108 15.5073 23.8063C15.5073 24.1018 15.7469 24.3413 16.0424 24.3413Z" fill="#FFFFFD"/>
<path fill-rule="evenodd" clip-rule="evenodd" d="M16.0424 23.3505C15.7906 23.3505 15.5866 23.5546 15.5866 23.8063C15.5866 24.058 15.7906 24.262 16.0424 24.262C16.2941 24.262 16.4981 24.058 16.4981 23.8063C16.4981 23.5546 16.2941 23.3505 16.0424 23.3505ZM16.5774 23.8063C16.5774 24.1018 16.3378 24.3413 16.0424 24.3413C15.7469 24.3413 15.5073 24.1018 15.5073 23.8063C15.5073 23.5108 15.7469 23.2712 16.0424 23.2712C16.3378 23.2712 16.5774 23.5108 16.5774 23.8063Z" fill="#3EDFCF"/>
<path d="M17.2718 24.3413C17.5673 24.3413 17.8069 24.1018 17.8069 23.8063C17.8069 23.5108 17.5673 23.2712 17.2718 23.2712C16.9764 23.2712 16.7368 23.5108 16.7368 23.8063C16.7368 24.1018 16.9764 24.3413 17.2718 24.3413Z" fill="#FFFFFD"/>
<path fill-rule="evenodd" clip-rule="evenodd" d="M17.2718 23.3505C17.0201 23.3505 16.8161 23.5546 16.8161 23.8063C16.8161 24.058 17.0201 24.262 17.2718 24.262C17.5236 24.262 17.7276 24.058 17.7276 23.8063C17.7276 23.5546 17.5236 23.3505 17.2718 23.3505ZM17.8069 23.8063C17.8069 24.1018 17.5673 24.3413 17.2718 24.3413C16.9764 24.3413 16.7368 24.1018 16.7368 23.8063C16.7368 23.5108 16.9764 23.2712 17.2718 23.2712C17.5673 23.2712 17.8069 23.5108 17.8069 23.8063Z" fill="#3EDFCF"/>
<path d="M18.4813 24.3413C18.7768 24.3413 19.0163 24.1018 19.0163 23.8063C19.0163 23.5108 18.7768 23.2712 18.4813 23.2712C18.1858 23.2712 17.9463 23.5108 17.9463 23.8063C17.9463 24.1018 18.1858 24.3413 18.4813 24.3413Z" fill="#FFFFFD"/>
<path fill-rule="evenodd" clip-rule="evenodd" d="M18.4813 23.3505C18.2296 23.3505 18.0256 23.5546 18.0256 23.8063C18.0256 24.058 18.2296 24.262 18.4813 24.262C18.733 24.262 18.9371 24.058 18.9371 23.8063C18.9371 23.5546 18.733 23.3505 18.4813 23.3505ZM19.0163 23.8063C19.0163 24.1018 18.7768 24.3413 18.4813 24.3413C18.1858 24.3413 17.9463 24.1018 17.9463 23.8063C17.9463 23.5108 18.1858 23.2712 18.4813 23.2712C18.7768 23.2712 19.0163 23.5108 19.0163 23.8063Z" fill="#3EDFCF"/>
</svg>
