<svg width="40" height="40" viewBox="0 0 40 40" fill="none" xmlns="http://www.w3.org/2000/svg">
<circle cx="20" cy="20" r="19.5" stroke="#6AD1C5"/>
<path d="M19.5087 23.7712C21.6061 23.7712 23.3064 22.0709 23.3064 19.9735C23.3064 17.876 21.6061 16.1757 19.5087 16.1757C17.4112 16.1757 15.7109 17.876 15.7109 19.9735C15.7109 22.0709 17.4112 23.7712 19.5087 23.7712Z" fill="#3EDFCF"/>
<path d="M19.5074 24.1019C17.2315 24.1019 15.3789 22.2494 15.3789 19.9734C15.3789 17.6974 17.2315 15.8448 19.5074 15.8448C21.7834 15.8448 23.636 17.6974 23.636 19.9734C23.636 22.2494 21.7834 24.1019 19.5074 24.1019ZM19.5074 16.5065C17.602 16.5065 16.0405 18.0547 16.0405 19.9734C16.0405 21.8921 17.5887 23.4403 19.5074 23.4403C21.4262 23.4403 22.9744 21.8921 22.9744 19.9734C22.9744 18.0547 21.4262 16.5065 19.5074 16.5065Z" fill="#3EDFCF"/>
<path d="M28.7335 31.3136C30.2755 31.3136 31.5255 30.0636 31.5255 28.5216C31.5255 26.9795 30.2755 25.7295 28.7335 25.7295C27.1915 25.7295 25.9414 26.9795 25.9414 28.5216C25.9414 30.0636 27.1915 31.3136 28.7335 31.3136Z" fill="#3EDFCF"/>
<path d="M28.7342 31.6444C27.014 31.6444 25.6113 30.2418 25.6113 28.5216C25.6113 26.8013 27.014 25.3987 28.7342 25.3987C30.4544 25.3987 31.8571 26.8013 31.8571 28.5216C31.8571 30.2418 30.4544 31.6444 28.7342 31.6444ZM28.7342 26.0603C27.3713 26.0603 26.273 27.1586 26.273 28.5216C26.273 29.8845 27.3845 30.9828 28.7342 30.9828C30.0839 30.9828 31.1955 29.8845 31.1955 28.5216C31.1955 27.1586 30.0972 26.0603 28.7342 26.0603Z" fill="#3EDFCF"/>
<path d="M12.1147 33.6558C13.1305 33.6558 13.954 32.8323 13.954 31.8165C13.954 30.8007 13.1305 29.9772 12.1147 29.9772C11.0989 29.9772 10.2754 30.8007 10.2754 31.8165C10.2754 32.8323 11.0989 33.6558 12.1147 33.6558Z" fill="#3EDFCF"/>
<path d="M12.1277 33.9998C11.3735 33.9998 10.6457 33.6161 10.2355 32.9147C9.94437 32.4119 9.86497 31.8297 10.0238 31.2607C10.1693 30.7049 10.5398 30.2285 11.0427 29.9374C12.088 29.3419 13.4113 29.6992 14.02 30.7314C14.6154 31.7767 14.2582 33.1 13.226 33.7087C12.882 33.9072 12.5115 33.9998 12.141 33.9998H12.1277ZM12.1277 30.3079C11.8763 30.3079 11.6117 30.3741 11.3735 30.5064C11.0294 30.7049 10.778 31.0357 10.6722 31.4195C10.5663 31.8164 10.6192 32.2134 10.8177 32.5707C11.2412 33.2985 12.1674 33.5367 12.882 33.1264C13.6098 32.703 13.848 31.7767 13.4378 31.0622C13.1599 30.5726 12.6438 30.3079 12.1277 30.3079Z" fill="#3EDFCF"/>
<path d="M7.94591 15.5143C9.20291 15.5143 10.2219 14.4953 10.2219 13.2383C10.2219 11.9813 9.20291 10.9623 7.94591 10.9623C6.68892 10.9623 5.66992 11.9813 5.66992 13.2383C5.66992 14.4953 6.68892 15.5143 7.94591 15.5143Z" fill="#3EDFCF"/>
<path d="M7.94616 15.8451C6.51705 15.8451 5.33936 14.6806 5.33936 13.2383C5.33936 11.7959 6.50382 10.6315 7.94616 10.6315C9.38851 10.6315 10.553 11.7959 10.553 13.2383C10.553 14.6806 9.38851 15.8451 7.94616 15.8451ZM7.94616 11.3063C6.87433 11.3063 6.00098 12.1797 6.00098 13.2515C6.00098 14.3233 6.87433 15.1967 7.94616 15.1967C9.018 15.1967 9.89134 14.3233 9.89134 13.2515C9.89134 12.1797 9.018 11.3063 7.94616 11.3063Z" fill="#3EDFCF"/>
<path d="M22.0251 9.87712C23.0044 9.87712 23.7983 9.08325 23.7983 8.10397C23.7983 7.12468 23.0044 6.33081 22.0251 6.33081C21.0458 6.33081 20.252 7.12468 20.252 8.10397C20.252 9.08325 21.0458 9.87712 22.0251 9.87712Z" fill="#3EDFCF"/>
<path d="M22.0254 10.2079C20.8609 10.2079 19.9214 9.26843 19.9214 8.10397C19.9214 6.93951 20.8609 6 22.0254 6C23.1898 6 24.1293 6.93951 24.1293 8.10397C24.1293 9.26843 23.1898 10.2079 22.0254 10.2079ZM22.0254 6.66163C21.2314 6.66163 20.583 7.31002 20.583 8.10397C20.583 8.89792 21.2314 9.54631 22.0254 9.54631C22.8193 9.54631 23.4677 8.89792 23.4677 8.10397C23.4677 7.31002 22.8193 6.66163 22.0254 6.66163Z" fill="#3EDFCF"/>
<path d="M32.0289 18.1608C33.2859 18.1608 34.3049 17.1418 34.3049 15.8848C34.3049 14.6278 33.2859 13.6088 32.0289 13.6088C30.7719 13.6088 29.7529 14.6278 29.7529 15.8848C29.7529 17.1418 30.7719 18.1608 32.0289 18.1608Z" fill="#3EDFCF"/>
<path d="M32.0326 18.4914C30.6035 18.4914 29.4258 17.327 29.4258 15.8846C29.4258 14.4423 30.5902 13.2778 32.0326 13.2778C33.4749 13.2778 34.6394 14.4423 34.6394 15.8846C34.6394 17.327 33.4749 18.4914 32.0326 18.4914ZM32.0326 13.9527C30.9608 13.9527 30.0874 14.826 30.0874 15.8979C30.0874 16.9697 30.9608 17.8431 32.0326 17.8431C33.1044 17.8431 33.9778 16.9697 33.9778 15.8979C33.9778 14.826 33.1044 13.9527 32.0326 13.9527Z" fill="#3EDFCF"/>
<path d="M11.3733 32.915L16.8912 21.932L17.4867 22.2232L12.6304 31.8961L27.9536 27.8337L18.9026 20.6749L19.551 18.4254L8.88555 14.8659L12.1011 30.9169L11.4527 31.0492L8.01221 13.8867L19.723 17.7903L22.3563 8.63336L33.6568 15.2496L21.0727 18.9415L20.1729 18.6371L19.6568 20.4368L29.396 28.1381L11.3733 32.9283V32.915ZM20.3449 17.9887L21.0727 18.2269L31.9895 15.0247L22.74 9.61257L20.3449 17.9755V17.9887Z" fill="#3EDFCF"/>
<path d="M21.2405 7.66807L7.7373 12.1417L7.94538 12.7697L21.4486 8.29612L21.2405 7.66807Z" fill="#3EDFCF"/>
<path d="M30.1494 28.3099L29.4878 28.204L31.4065 15.1965L32.0549 15.3023L30.1494 28.3099Z" fill="#3EDFCF"/>
</svg>
