<svg width="40" height="40" viewBox="0 0 40 40" fill="none" xmlns="http://www.w3.org/2000/svg">
<circle cx="20" cy="20" r="19.5" stroke="#3EDFCF"/>
<circle cx="20" cy="20" r="19.5" stroke="#6AD1C5"/>
<path d="M15.3599 30.8537H8.90918V24.403H15.3599V30.8537ZM9.78802 29.9748H14.4811V25.2818H9.78802V29.9748Z" fill="#3EDFCF"/>
<path d="M22.3189 34L16.167 31.9611L18.2059 25.8092L24.3578 27.8481L22.3189 34ZM17.2743 31.4162L21.7564 32.8927L23.2329 28.4106L18.7508 26.9341L17.2743 31.4162Z" fill="#3EDFCF"/>
<path d="M11.58 23.5943H4.00439V16.0187H11.58V23.5943ZM4.88324 22.7155H10.7012V16.8975H4.88324V22.7155Z" fill="#3EDFCF"/>
<path d="M20.2622 23.5943H12.6865V16.0187H20.2622V23.5943ZM13.5654 22.7155H19.3833V16.8975H13.5654V22.7155Z" fill="#3EDFCF"/>
<path d="M12.7233 13.9623H7.32715V8.56616H12.7233V13.9623ZM8.20599 13.0834H11.8444V9.44501H8.20599V13.0834Z" fill="#3EDFCF"/>
<path d="M15.6942 15.3509L13.6553 8.0565L20.9497 6L22.9886 13.2944L15.6942 15.3509ZM14.7275 8.65411L16.2918 14.2611L21.8988 12.6968L20.3345 7.08977L14.7275 8.65411Z" fill="#3EDFCF"/>
<path d="M21.9678 19.8505L27.5572 16.6164L33.1643 13.3822V19.8505V26.3188L27.5572 23.0847L21.9678 19.8505Z" fill="#3EDFCF"/>
<path d="M33.6041 27.0747L21.0894 19.8506L33.6041 12.6265V27.0747ZM22.847 19.8506L32.7253 25.5631V14.1557L22.847 19.8681V19.8506Z" fill="#3EDFCF"/>
<path d="M30.5464 19.8504L33.2357 18.3036L35.9249 16.7568V19.8504V22.9615L33.2357 21.4147L30.5464 19.8504Z" fill="#3EDFCF"/>
<path d="M36.3638 23.7174L29.667 19.8504L36.3638 15.9835V23.7174ZM31.4247 19.8504L35.4849 22.1882V17.4951L31.4247 19.8329V19.8504Z" fill="#3EDFCF"/>
</svg>
