<svg width="40" height="40" viewBox="0 0 40 40" fill="none" xmlns="http://www.w3.org/2000/svg">
<circle cx="20" cy="20" r="19.5" stroke="#6AD1C5"/>
<path fill-rule="evenodd" clip-rule="evenodd" d="M8.00879 8H14.2686L14.6152 14.5233L8.00879 14.2635V8ZM8.57303 8.56424V13.721L14.0189 13.9352L13.7335 8.56424H8.57303Z" fill="#3EDFCF"/>
<path fill-rule="evenodd" clip-rule="evenodd" d="M13.7036 8H19.9332L21.3604 13.8948L14.0508 14.5358L13.7036 8ZM14.2986 8.56424L14.5833 13.9227L20.6576 13.3901L19.4893 8.56424H14.2986Z" fill="#3EDFCF"/>
<path fill-rule="evenodd" clip-rule="evenodd" d="M19.3526 8H25.6285L26.7691 12.4102L20.8026 13.9889L19.3526 8ZM20.0698 8.56424L21.2154 13.296L26.0824 12.0083L25.1917 8.56424H20.0698Z" fill="#3EDFCF"/>
<path fill-rule="evenodd" clip-rule="evenodd" d="M25.0457 8H31.4024V14.4012L26.1891 12.4212L25.0457 8ZM25.7745 8.56424L26.6623 11.9973L30.8381 13.5833V8.56424H25.7745Z" fill="#3EDFCF"/>
<path fill-rule="evenodd" clip-rule="evenodd" d="M8.00879 13.6988L14.6153 13.9587L14.2674 19.9846H8.00879V13.6988ZM8.57303 14.2857V19.4203H13.7348L14.0188 14.4999L8.57303 14.2857Z" fill="#3EDFCF"/>
<path fill-rule="evenodd" clip-rule="evenodd" d="M21.3081 13.333L20.9608 19.8203L13.7018 19.9917L14.0494 13.9695L21.3081 13.333ZM14.5846 14.489L14.3004 19.4132L20.4253 19.2686L20.7099 13.9519L14.5846 14.489Z" fill="#3EDFCF"/>
<path fill-rule="evenodd" clip-rule="evenodd" d="M26.7226 11.8389L26.427 19.3773L20.3941 19.8509L20.7383 13.4223L26.7226 11.8389ZM21.2797 13.8626L20.992 19.238L25.8828 18.854L26.1289 12.5796L21.2797 13.8626Z" fill="#3EDFCF"/>
<path fill-rule="evenodd" clip-rule="evenodd" d="M26.1592 11.8062L31.4024 13.7976V20.0199L25.8628 19.3652L26.1592 11.8062ZM26.6923 12.6123L26.447 18.8661L30.8381 19.385V14.1869L26.6923 12.6123Z" fill="#3EDFCF"/>
<path fill-rule="evenodd" clip-rule="evenodd" d="M8.00879 19.4203H14.3313L13.2203 26.4445L8.00879 25.6552V19.4203ZM8.57303 19.9846V25.17L12.7506 25.8026L13.6708 19.9846H8.57303Z" fill="#3EDFCF"/>
<path fill-rule="evenodd" clip-rule="evenodd" d="M21.0638 19.2535L19.2659 25.9153L12.6509 26.4327L13.7592 19.4259L21.0638 19.2535ZM14.243 19.9789L13.32 25.8144L18.8249 25.3838L20.3223 19.8354L14.243 19.9789Z" fill="#3EDFCF"/>
<path fill-rule="evenodd" clip-rule="evenodd" d="M26.4754 18.8075L25.6619 25.6855L18.6733 25.9458L20.4725 19.2788L26.4754 18.8075ZM20.9135 19.8101L19.4176 25.3534L25.1583 25.1397L25.8344 19.4238L20.9135 19.8101Z" fill="#3EDFCF"/>
<path fill-rule="evenodd" clip-rule="evenodd" d="M25.9079 18.8023L31.4024 19.4517V25.6947H25.0926L25.9079 18.8023ZM26.4019 19.4289L25.7276 25.1305H30.8381V19.9532L26.4019 19.4289Z" fill="#3EDFCF"/>
<path fill-rule="evenodd" clip-rule="evenodd" d="M8.00879 25.0845L13.2225 25.8741L14.3464 31.3936H8.00879V25.0845ZM8.57303 25.7407V30.8293H13.6557L12.7483 26.373L8.57303 25.7407Z" fill="#3EDFCF"/>
<path fill-rule="evenodd" clip-rule="evenodd" d="M19.2928 25.3472L20.0298 31.3936H13.7706L12.6453 25.8672L19.2928 25.3472ZM13.3255 26.3799L14.2315 30.8293H19.3926L18.7981 25.9519L13.3255 26.3799Z" fill="#3EDFCF"/>
<path fill-rule="evenodd" clip-rule="evenodd" d="M25.6922 25.1198V31.3936H19.4614L18.7282 25.3791L25.6922 25.1198ZM19.3626 25.9201L19.961 30.8293H25.128V25.7054L19.3626 25.9201Z" fill="#3EDFCF"/>
<path fill-rule="evenodd" clip-rule="evenodd" d="M25.128 25.1305H31.4024V31.4049H25.128V25.1305ZM25.6922 25.6947V30.8406H30.8381V25.6947H25.6922Z" fill="#3EDFCF"/>
<path d="M25.9179 16.2493C27.5446 16.2493 28.8633 14.9306 28.8633 13.3039C28.8633 11.6772 27.5446 10.3585 25.9179 10.3585C24.2912 10.3585 22.9726 11.6772 22.9726 13.3039C22.9726 14.9306 24.2912 16.2493 25.9179 16.2493Z" fill="#3EDFCF"/>
<path d="M13.008 27.8389C14.0239 27.8389 14.8474 27.0153 14.8474 25.9994C14.8474 24.9835 14.0239 24.16 13.008 24.16C11.9921 24.16 11.1686 24.9835 11.1686 25.9994C11.1686 27.0153 11.9921 27.8389 13.008 27.8389Z" fill="#3EDFCF"/>
</svg>
