<svg width="29" height="29" viewBox="0 0 29 29" fill="none" xmlns="http://www.w3.org/2000/svg">
<rect width="29" height="29" fill="#F5F5F5"/>
<g id="AI Model" clip-path="url(#clip0_7023_797)">
<rect width="390" height="3027" transform="translate(-154 -2510)" fill="#FFFEFB"/>
<g id="Frame 33763">
<rect width="390" height="625" transform="translate(-154 -108)" fill="#F6F9F9"/>
<g id="Group 33709">
<g id="Github" opacity="0.2">
<circle id="Ellipse 120" cx="14.5" cy="14.5" r="14" stroke="#151C1A" stroke-opacity="0.9"/>
<g id="Group">
<path id="Vector" d="M12.5456 21.2727C12.3086 21.2978 12.1076 21.3229 11.9066 21.3445C10.8619 21.4486 9.95007 21.165 9.26081 20.3501C9.04541 20.0952 8.92336 19.7649 8.74027 19.4813C8.45667 19.0362 8.16589 18.5946 7.85357 18.1674C7.74587 18.0202 7.5592 17.9341 7.4156 17.8084C7.36893 17.7689 7.35457 17.6935 7.32227 17.6325C7.38688 17.6074 7.44791 17.5643 7.51253 17.5571C8.33821 17.4817 8.91977 17.8623 9.32543 18.5479C9.8316 19.4023 10.5639 19.869 11.5583 19.869C11.8455 19.869 12.1327 19.7721 12.4163 19.7075C12.4702 19.6931 12.5348 19.6105 12.542 19.5495C12.5922 19.1762 12.6389 18.8028 12.8112 18.4618C12.8758 18.3361 12.9512 18.2177 13.0266 18.0884C12.7358 18.031 12.4558 17.9879 12.1794 17.9197C10.905 17.5966 9.85314 16.9576 9.24286 15.7442C9.00593 15.2704 8.8731 14.7606 8.85515 14.2293C8.82643 13.4108 8.8372 12.5887 9.00234 11.781C9.1208 11.2138 9.3362 10.6861 9.76698 10.2768C9.86032 10.1871 9.87827 10.1081 9.82801 9.97168C9.58749 9.30037 9.56236 8.61829 9.76698 7.93262C9.81006 7.78544 9.84955 7.63825 9.89263 7.48389C10.8763 7.67056 11.4614 8.33469 12.0107 9.07062C12.5779 8.6506 13.2492 8.6147 13.9025 8.57162C14.678 8.52137 15.457 8.53214 16.2288 8.65778C16.6309 8.7224 16.8786 8.80497 17.2699 9.03831C17.6073 8.69009 17.9232 8.33828 18.2714 8.01878C18.5479 7.7639 18.8925 7.60235 19.2658 7.5162C19.3699 7.49107 19.4238 7.50184 19.4669 7.61671C19.7577 8.41008 19.8007 9.19986 19.4812 9.99322C19.4382 10.1009 19.4417 10.1763 19.5315 10.2625C20.0484 10.7543 20.2854 11.3897 20.3643 12.0754C20.4361 12.7108 20.4756 13.3498 20.4756 13.9888C20.4756 14.897 20.2064 15.7299 19.6356 16.4443C19.2335 16.9504 18.713 17.313 18.1243 17.5858C17.5535 17.8479 16.9575 17.9987 16.3401 18.0777C16.3257 18.0813 16.3114 18.092 16.2862 18.1028C16.7098 18.7095 16.778 19.3916 16.7709 20.0988C16.7601 21.1291 16.7637 22.1558 16.7709 23.1861C16.7709 23.3476 16.7242 23.3871 16.5662 23.3871C15.2918 23.3799 14.0174 23.3799 12.743 23.3871C12.585 23.3871 12.5348 23.3369 12.5348 23.1825C12.542 22.6261 12.5384 22.0696 12.5384 21.5132C12.5456 21.4306 12.5456 21.3588 12.5456 21.2727Z" fill="#151C1A" fill-opacity="0.9"/>
</g>
</g>
</g>
</g>
</g>
<defs>
<clipPath id="clip0_7023_797">
<rect width="390" height="3027" fill="white" transform="translate(-154 -2510)"/>
</clipPath>
</defs>
</svg>
