<svg width="45" height="52" viewBox="0 0 45 52" fill="none" xmlns="http://www.w3.org/2000/svg">
<g id="Clip path group">
<mask id="mask0_7470_3611" style="mask-type:luminance" maskUnits="userSpaceOnUse" x="0" y="0" width="45" height="52">
<g id="clippath">
<path id="Vector" d="M44.4651 6.10352e-05H0V51.2144H44.4651V6.10352e-05Z" fill="white"/>
</g>
</mask>
<g mask="url(#mask0_7470_3611)">
<g id="Group">
<g id="Group_2">
<path id="Vector_2" d="M14.8252 38.4155L7.40596 34.1404V25.6033L0 21.3388V38.4155L22.2339 51.2171V34.1404L14.8279 29.8785V38.4155H14.8252Z" fill="#89D1CD"/>
<path id="Vector_3" d="M22.2341 25.6006L14.8281 29.8757L22.2341 34.1376L29.6534 29.8757L22.2341 25.6006Z" fill="#9EB3CF"/>
<path id="Vector_4" d="M7.40596 17.0637L0 21.3388L7.40596 25.6007L14.8252 21.3388L7.40596 17.0637Z" fill="#9EB3CF"/>
<path id="Vector_5" d="M37.0593 17.0637L29.6533 21.3388L37.0593 25.6007L44.4652 21.3388L37.0593 17.0637Z" fill="#9EB3CF"/>
<path id="Vector_6" d="M22.2341 8.53717L14.8281 12.7991L22.2341 17.0742L29.6534 12.7991L22.2341 8.53717Z" fill="#9EB3CF"/>
<path id="Vector_7" d="M7.40527 25.6007V34.1377L14.8246 38.4129V21.3361" fill="white"/>
<path id="Vector_8" d="M22.2334 17.0769V25.614L29.6527 29.8758V12.8018" fill="white"/>
<path id="Vector_9" d="M37.0593 25.6139V34.151L29.6533 38.4129V21.3361" fill="#E0F2F4"/>
<path id="Vector_10" d="M22.2341 17.0769V25.614L14.8281 29.8758V12.8018" fill="#E0F2F4"/>
<path id="Vector_11" d="M22.2339 6.10352e-05L0 12.8016L22.2339 25.6165L44.4677 12.8016L22.2339 6.10352e-05Z" fill="#DBD8EC"/>
<path id="Vector_12" d="M0 12.8018V21.3388L7.40596 25.614V34.151L14.8252 38.4129V29.8758L22.2312 34.151V25.614L0 12.8018Z" fill="#F3EFE8"/>
<path id="Vector_13" d="M22.2341 25.614V34.151L29.6534 29.8758V38.4129L37.0593 34.151V25.614L44.4653 21.3388V12.8018L22.2314 25.6166L22.2341 25.614Z" fill="#B1DCBE"/>
<path id="Vector_14" d="M14.8252 38.4155L22.2312 34.1536L14.8252 29.8784V38.4155Z" fill="#89D1CD"/>
<path id="Vector_15" d="M37.0586 25.6007V34.1377L29.6527 38.4129V29.8758L22.2334 34.1377V51.2144L44.4673 38.4129V21.3361L37.0613 25.598L37.0586 25.6007Z" fill="#3188B2"/>
</g>
</g>
</g>
</g>
</svg>
