<svg width="19" height="22" viewBox="0 0 19 22" fill="none" xmlns="http://www.w3.org/2000/svg">
<mask id="mask0_26_3821" style="mask-type:luminance" maskUnits="userSpaceOnUse" x="0" y="0" width="19" height="22">
<path d="M18.3309 0H0V21.5684H18.3309V0Z" fill="white"/>
</mask>
<g mask="url(#mask0_26_3821)">
<path d="M6.11307 16.1774L3.05445 14.3768V10.7821L0 8.98578V16.1774L9.16543 21.5684V14.3768L6.11307 12.5826V16.1774Z" fill="#89D1CC"/>
<path d="M9.16564 10.7821L6.11328 12.5826L9.16564 14.3768L12.2243 12.5826L9.16564 10.7821Z" fill="#9FB3CF"/>
<path d="M3.05236 7.18524L0 8.98577L3.05236 10.78L6.11099 8.98577L3.05236 7.18524Z" fill="#9FB3CF"/>
<path d="M15.2784 7.18524L12.2261 8.98577L15.2784 10.78L18.3308 8.98577L15.2784 7.18524Z" fill="#9FB3CF"/>
<path d="M9.16564 3.59473L6.11328 5.38893L9.16564 7.18946L12.2243 5.38893L9.16564 3.59473Z" fill="#9FB3CF"/>
<path d="M3.05225 10.7821V14.3768L6.11087 16.1774V8.98578" fill="#FFFEFB"/>
<path d="M9.16553 7.19158V10.7863L12.2242 12.5805V5.39105" fill="#FFFEFB"/>
<path d="M15.2784 10.7863V14.3811L12.2261 16.1753V8.9837" fill="#E0F2F3"/>
<path d="M9.16564 7.19158V10.7863L6.11328 12.5805V5.39105" fill="#E0F2F3"/>
<path d="M9.16543 0L0 5.39105L9.16543 10.7884L18.3309 5.39105L9.16543 0Z" fill="#DBD7EC"/>
<path d="M0 5.39105V8.98579L3.05236 10.7863V14.3811L6.11099 16.1753V12.5805L9.16335 14.3811V10.7863L0 5.39105Z" fill="#F2EFE8"/>
<path d="M9.16566 10.7863V14.3811L12.2243 12.5805V16.1753L15.2766 14.3811V10.7863L18.329 8.98579V5.39105L9.16357 10.7884L9.16566 10.7863Z" fill="#B2DCBD"/>
<path d="M6.11328 16.1774L9.16564 14.3832L6.11328 12.5826V16.1774Z" fill="#89D1CC"/>
<path d="M15.2785 10.7821V14.3768L12.2261 16.1774V12.5826L9.16748 14.3768V21.5684L18.3329 16.1774V8.98578L15.2806 10.78L15.2785 10.7821Z" fill="#3188B2"/>
</g>
</svg>
