<svg width="304" height="350" viewBox="0 0 304 350" fill="none" xmlns="http://www.w3.org/2000/svg">
<path d="M101.05 262.46L50.52 233.32V174.98L0 145.81V262.49L151.56 350V233.32L101.05 204.15V262.46Z" fill="#89D1CD"/>
<path d="M151.561 174.98L101.051 204.15L151.561 233.32L202.071 204.15L151.561 174.98Z" fill="#9D9ECE"/>
<path d="M50.51 116.64L0 145.81L50.51 174.98L101.03 145.81L50.51 116.64Z" fill="#9D9ECE"/>
<path d="M252.59 116.64L202.07 145.81L252.59 174.98L303.1 145.81L252.59 116.64Z" fill="#9D9ECE"/>
<path d="M151.561 58.3301L101.051 87.5001L151.561 116.67L202.071 87.5001L151.561 58.3301Z" fill="#9D9ECE"/>
<path d="M50.5098 174.98L50.5198 233.32L101.05 262.46L101.03 145.81" fill="white"/>
<path d="M151.561 116.65L151.571 174.99L202.091 204.13L202.071 87.48" fill="white"/>
<path d="M252.61 174.99L252.6 233.33L202.07 262.47L202.09 145.82" fill="#DFE6F2"/>
<path d="M151.559 116.66L151.549 175L101.029 204.15L101.049 87.5" fill="#DFE6F2"/>
<path d="M151.56 0L0 87.51L151.56 175.02L303.12 87.51L151.56 0Z" fill="#DBD8EC"/>
<path d="M0 87.51V145.85L50.52 175.02V233.36L101.05 262.51V204.2L151.56 233.36V175.02L0 87.51Z" fill="#F3EFE8"/>
<path d="M151.561 175.02V233.36L202.071 204.2V262.51L252.601 233.36V175.02L303.121 145.85V87.51L151.561 175.02Z" fill="#B1DCBE"/>
<path d="M101.051 262.51L151.561 233.36L101.051 204.2V262.51Z" fill="#89D1CD"/>
<path d="M252.601 174.98V233.32L202.091 262.46V204.2H202.071V204.15L151.561 233.32V350L303.121 262.49V145.81L252.601 174.98Z" fill="#3188B2"/>
</svg>
