<svg width="29" height="29" viewBox="0 0 29 29" fill="none" xmlns="http://www.w3.org/2000/svg">
<path d="M14.6297 25.6925C8.19654 25.6925 2.98145 20.4773 2.98145 14.0442C2.98145 7.61109 8.19654 2.396 14.6297 2.396C21.0628 2.396 26.2779 7.61109 26.2779 14.0442C26.2779 20.4773 21.0628 25.6925 14.6297 25.6925ZM11.9623 22.9754C10.841 20.5974 10.1536 17.9746 10.0022 15.2091H5.38319C5.84459 18.9091 8.47521 21.9356 11.9623 22.9754ZM12.3358 15.2091C12.511 18.0498 13.3225 20.7183 14.6297 23.074C15.9369 20.7183 16.7484 18.0498 16.9236 15.2091H12.3358ZM23.8762 15.2091H19.2572C19.1058 17.9746 18.4184 20.5974 17.2971 22.9754C20.7842 21.9356 23.4148 18.9091 23.8762 15.2091ZM5.38319 12.8794H10.0022C10.1536 10.1139 10.841 7.49102 11.9623 5.11302C8.47521 6.15294 5.84459 9.17935 5.38319 12.8794ZM12.3358 12.8794H16.9236C16.7484 10.0387 15.9369 7.37009 14.6297 5.01451C13.3225 7.37009 12.511 10.0387 12.3358 12.8794ZM17.2971 5.11302C18.4184 7.49102 19.1058 10.1139 19.2572 12.8794H23.8762C23.4148 9.17935 20.7842 6.15294 17.2971 5.11302Z" fill="#00FFF5"/>
</svg>
