<svg width="21" height="21" viewBox="0 0 21 21" fill="none" xmlns="http://www.w3.org/2000/svg">
<path d="M11.386 10.5C11.386 16.3007 10.9874 21 10.4996 21C10.0119 21 9.61328 16.3007 9.61328 10.5C9.61328 4.6993 10.0119 0 10.4996 0C10.9874 0 11.386 4.6993 11.386 10.5Z" fill="url(#paint0_linear_164_709)" style="mix-blend-mode:screen"/>
<path d="M10.5 11.3869C4.6993 11.3869 0 10.9883 0 10.5005C0 10.0127 4.6993 9.61414 10.5 9.61414C16.3007 9.61414 21 10.0127 21 10.5005C21 10.9883 16.2955 11.3869 10.5 11.3869Z" fill="url(#paint1_linear_164_709)" style="mix-blend-mode:screen"/>
<path d="M10.9735 10.9721C7.90532 14.0403 5.20427 16.3218 4.94728 16.0595C4.68504 15.8025 6.96651 13.1015 10.0347 10.0333C13.1029 6.96511 15.8039 4.68364 16.0609 4.94588C16.3232 5.20287 14.0417 7.90392 10.9735 10.9721Z" fill="url(#paint2_linear_164_709)" style="mix-blend-mode:screen"/>
<path d="M10.0347 10.9721C6.96651 7.90392 4.68504 5.20287 4.94728 4.94588C5.20427 4.68364 7.90532 6.96511 10.9735 10.0333C14.0417 13.1015 16.3232 15.8025 16.0609 16.0595C15.8039 16.3218 13.1029 14.0403 10.0347 10.9721Z" fill="url(#paint3_linear_164_709)" style="mix-blend-mode:screen"/>
<defs>
<linearGradient id="paint0_linear_164_709" x1="10.4473" y1="0.419856" x2="10.3926" y2="20.7912" gradientUnits="userSpaceOnUse">
<stop stop-color="#2DF7E4" stop-opacity="0"/>
<stop offset="0.485" stop-color="white"/>
<stop offset="1" stop-color="#2DF7E4" stop-opacity="0"/>
</linearGradient>
<linearGradient id="paint1_linear_164_709" x1="1.74997e-05" y1="10.4901" x2="20.979" y2="10.4907" gradientUnits="userSpaceOnUse">
<stop stop-color="#2DF7E4" stop-opacity="0"/>
<stop offset="0.0001" stop-color="#3BFFEC" stop-opacity="0"/>
<stop offset="0.485" stop-color="white"/>
<stop offset="1" stop-color="#2DF7E4" stop-opacity="0"/>
</linearGradient>
<linearGradient id="paint2_linear_164_709" x1="4.62372" y1="16.3819" x2="15.9619" y2="5.04009" gradientUnits="userSpaceOnUse">
<stop stop-color="#2DF7E4" stop-opacity="0"/>
<stop offset="0.485" stop-color="white"/>
<stop offset="1" stop-color="#2DF7E4" stop-opacity="0"/>
</linearGradient>
<linearGradient id="paint3_linear_164_709" x1="4.83272" y1="5.03865" x2="16.1766" y2="16.1646" gradientUnits="userSpaceOnUse">
<stop stop-color="#2DF7E4" stop-opacity="0"/>
<stop offset="0.485" stop-color="white"/>
<stop offset="1" stop-color="#2DF7E4" stop-opacity="0"/>
</linearGradient>
</defs>
</svg>
