<svg width="233" height="16" viewBox="0 0 233 16" fill="none" xmlns="http://www.w3.org/2000/svg">
<path d="M1.44727 6.85596C0.894981 6.85596 0.447266 7.30367 0.447266 7.85596C0.447266 8.40824 0.894981 8.85596 1.44727 8.85596V6.85596ZM232.486 8.56306C232.876 8.17254 232.876 7.53937 232.486 7.14885L226.122 0.784889C225.731 0.394365 225.098 0.394365 224.708 0.784889C224.317 1.17541 224.317 1.80858 224.708 2.1991L230.365 7.85596L224.708 13.5128C224.317 13.9033 224.317 14.5365 224.708 14.927C225.098 15.3175 225.731 15.3175 226.122 14.927L232.486 8.56306ZM1.44727 8.85596H3.43288V6.85596H1.44727V8.85596ZM7.40412 8.85596H11.3754V6.85596H7.40412V8.85596ZM15.3466 8.85596H19.3178V6.85596H15.3466V8.85596ZM23.2891 8.85596H27.2603V6.85596H23.2891V8.85596ZM31.2315 8.85596H35.2028V6.85596H31.2315V8.85596ZM39.174 8.85596H43.1452V6.85596H39.174V8.85596ZM47.1165 8.85596H51.0877V6.85596H47.1165V8.85596ZM55.0589 8.85596H59.0302V6.85596H55.0589V8.85596ZM63.0014 8.85596H66.9726V6.85596H63.0014V8.85596ZM70.9439 8.85596H74.9151V6.85596H70.9439V8.85596ZM78.8863 8.85596H82.8576V6.85596H78.8863V8.85596ZM86.8288 8.85596H90.8V6.85596H86.8288V8.85596ZM94.7713 8.85596H98.7425V6.85596H94.7713V8.85596ZM102.714 8.85596H106.685V6.85596H102.714V8.85596ZM110.656 8.85596H114.627V6.85596H110.656V8.85596ZM118.599 8.85596H122.57V6.85596H118.599V8.85596ZM126.541 8.85596H130.512V6.85596H126.541V8.85596ZM134.484 8.85596H138.455V6.85596H134.484V8.85596ZM142.426 8.85596H146.397V6.85596H142.426V8.85596ZM150.369 8.85596H154.34V6.85596H150.369V8.85596ZM158.311 8.85596H162.282V6.85596H158.311V8.85596ZM166.254 8.85596H170.225V6.85596H166.254V8.85596ZM174.196 8.85596H178.167V6.85596H174.196V8.85596ZM182.138 8.85596H186.11V6.85596H182.138V8.85596ZM190.081 8.85596H194.052V6.85596H190.081V8.85596ZM198.023 8.85596H201.995V6.85596H198.023V8.85596ZM205.966 8.85596H209.937V6.85596H205.966V8.85596ZM213.908 8.85596H217.88V6.85596H213.908V8.85596ZM221.851 8.85596H225.822V6.85596H221.851V8.85596ZM229.793 8.85596H231.779V6.85596H229.793V8.85596Z" fill="black"/>
<path d="M1.44727 6.85596C0.894981 6.85596 0.447266 7.30367 0.447266 7.85596C0.447266 8.40824 0.894981 8.85596 1.44727 8.85596V6.85596ZM232.486 8.56306C232.876 8.17254 232.876 7.53937 232.486 7.14885L226.122 0.784889C225.731 0.394365 225.098 0.394365 224.708 0.784889C224.317 1.17541 224.317 1.80858 224.708 2.1991L230.365 7.85596L224.708 13.5128C224.317 13.9033 224.317 14.5365 224.708 14.927C225.098 15.3175 225.731 15.3175 226.122 14.927L232.486 8.56306ZM1.44727 8.85596H3.43288V6.85596H1.44727V8.85596ZM7.40412 8.85596H11.3754V6.85596H7.40412V8.85596ZM15.3466 8.85596H19.3178V6.85596H15.3466V8.85596ZM23.2891 8.85596H27.2603V6.85596H23.2891V8.85596ZM31.2315 8.85596H35.2028V6.85596H31.2315V8.85596ZM39.174 8.85596H43.1452V6.85596H39.174V8.85596ZM47.1165 8.85596H51.0877V6.85596H47.1165V8.85596ZM55.0589 8.85596H59.0302V6.85596H55.0589V8.85596ZM63.0014 8.85596H66.9726V6.85596H63.0014V8.85596ZM70.9439 8.85596H74.9151V6.85596H70.9439V8.85596ZM78.8863 8.85596H82.8576V6.85596H78.8863V8.85596ZM86.8288 8.85596H90.8V6.85596H86.8288V8.85596ZM94.7713 8.85596H98.7425V6.85596H94.7713V8.85596ZM102.714 8.85596H106.685V6.85596H102.714V8.85596ZM110.656 8.85596H114.627V6.85596H110.656V8.85596ZM118.599 8.85596H122.57V6.85596H118.599V8.85596ZM126.541 8.85596H130.512V6.85596H126.541V8.85596ZM134.484 8.85596H138.455V6.85596H134.484V8.85596ZM142.426 8.85596H146.397V6.85596H142.426V8.85596ZM150.369 8.85596H154.34V6.85596H150.369V8.85596ZM158.311 8.85596H162.282V6.85596H158.311V8.85596ZM166.254 8.85596H170.225V6.85596H166.254V8.85596ZM174.196 8.85596H178.167V6.85596H174.196V8.85596ZM182.138 8.85596H186.11V6.85596H182.138V8.85596ZM190.081 8.85596H194.052V6.85596H190.081V8.85596ZM198.023 8.85596H201.995V6.85596H198.023V8.85596ZM205.966 8.85596H209.937V6.85596H205.966V8.85596ZM213.908 8.85596H217.88V6.85596H213.908V8.85596ZM221.851 8.85596H225.822V6.85596H221.851V8.85596ZM229.793 8.85596H231.779V6.85596H229.793V8.85596Z" fill="url(#paint0_linear_2081_43650)"/>
<defs>
<linearGradient id="paint0_linear_2081_43650" x1="6.95702" y1="17.564" x2="117.384" y2="75.917" gradientUnits="userSpaceOnUse">
<stop stop-color="#CA00C1"/>
<stop offset="0.498404" stop-color="white"/>
<stop offset="0.744195" stop-color="#FA00FF"/>
<stop offset="1" stop-color="#00F7E4"/>
</linearGradient>
</defs>
</svg>
