<svg width="35.49" height="35.49" viewBox="0 0 40 40" fill="none" xmlns="http://www.w3.org/2000/svg">
<g clip-path="url(#clip0_106_631)">
<path d="M21.6859 20C21.6859 31.049 20.9267 40 19.9976 40C19.0686 40 18.3093 31.049 18.3093 20C18.3093 8.95105 19.0686 0 19.9976 0C20.9267 0 21.6859 8.95105 21.6859 20Z" fill="url(#paint0_linear_106_631)" style="mix-blend-mode:screen"/>
<path d="M20 21.6883C8.95105 21.6883 0 20.9291 0 20C0 19.0709 8.95105 18.3117 20 18.3117C31.049 18.3117 40 19.0709 40 20C40 20.9291 31.039 21.6883 20 21.6883Z" fill="url(#paint1_linear_106_631)" style="mix-blend-mode:screen"/>
<path d="M20.8973 20.8998C15.0531 26.744 9.90824 31.0896 9.41873 30.5901C8.91923 30.1006 13.2649 24.9558 19.109 19.1116C24.9532 13.2674 30.0981 8.92179 30.5876 9.42129C31.0871 9.9108 26.7414 15.0557 20.8973 20.8998Z" fill="url(#paint2_linear_106_631)" style="mix-blend-mode:screen"/>
<path d="M19.109 20.8998C13.2649 15.0557 8.91923 9.9108 9.41873 9.42129C9.90824 8.92179 15.0531 13.2674 20.8973 19.1116C26.7414 24.9558 31.0871 30.1006 30.5876 30.5901C30.0981 31.0896 24.9532 26.744 19.109 20.8998Z" fill="url(#paint3_linear_106_631)" style="mix-blend-mode:screen"/>
</g>
<defs>
<linearGradient id="paint0_linear_106_631" x1="19.8979" y1="0.799726" x2="19.7938" y2="39.6023" gradientUnits="userSpaceOnUse">
<stop stop-color="#56FFEF" stop-opacity="0"/>
<stop offset="0.485" stop-color="white"/>
<stop offset="1" stop-color="#56FFEF" stop-opacity="0"/>
</linearGradient>
<linearGradient id="paint1_linear_106_631" x1="3.33327e-05" y1="19.9803" x2="39.96" y2="19.9814" gradientUnits="userSpaceOnUse">
<stop stop-color="#56FFEF" stop-opacity="0"/>
<stop offset="0.485" stop-color="white"/>
<stop offset="1" stop-color="#56FFEF" stop-opacity="0"/>
</linearGradient>
<linearGradient id="paint2_linear_106_631" x1="8.80242" y1="31.2042" x2="30.399" y2="9.60075" gradientUnits="userSpaceOnUse">
<stop stop-color="#56FFEF" stop-opacity="0"/>
<stop offset="0.485" stop-color="white"/>
<stop offset="1" stop-color="#56FFEF" stop-opacity="0"/>
</linearGradient>
<linearGradient id="paint3_linear_106_631" x1="9.20051" y1="9.59801" x2="30.8079" y2="30.7903" gradientUnits="userSpaceOnUse">
<stop stop-color="#56FFEF" stop-opacity="0"/>
<stop offset="0.485" stop-color="white"/>
<stop offset="1" stop-color="#56FFEF" stop-opacity="0"/>
</linearGradient>
<clipPath id="clip0_106_631">
<rect width="40" height="40" fill="white"/>
</clipPath>
</defs>
</svg>
