<svg width="29" height="29" viewBox="0 0 29 29" fill="none" xmlns="http://www.w3.org/2000/svg">
<path d="M5.90271 3.52133C5.97559 2.93841 6.4711 2.50098 7.05855 2.50098H22.2013C22.7887 2.50098 23.2842 2.93841 23.3571 3.52133L25.1044 17.4993C25.1103 17.5471 25.1133 17.5954 25.1133 17.6437V24.6327C25.1133 25.276 24.5918 25.7975 23.9485 25.7975H5.31131C4.668 25.7975 4.14648 25.276 4.14648 24.6327V17.6437C4.14648 17.5954 4.14949 17.5471 4.15548 17.4993L5.90271 3.52133ZM8.08683 4.83063L6.6308 16.4789H22.629L21.173 4.83063H8.08683ZM22.7837 18.8085H6.47613V23.4678H22.7837V18.8085ZM18.1244 19.9734H20.454V22.303H18.1244V19.9734ZM15.7947 19.9734H13.4651V22.303H15.7947V19.9734Z" fill="#00FFF5"/>
</svg>
