<svg width="29" height="29" viewBox="0 0 29 29" fill="none" xmlns="http://www.w3.org/2000/svg">
<g id="Twitter">
<circle id="Ellipse 119" cx="14.5" cy="14.5" r="14" stroke="#3EDFCF"/>
<path id="Vector" d="M22.4521 9.85011C21.8667 10.1005 21.2357 10.265 20.582 10.3437C21.251 9.96457 21.7679 9.36366 22.0111 8.64114C21.3802 8.99882 20.6808 9.2492 19.9434 9.39228C19.3429 8.77706 18.4991 8.41937 17.5412 8.41937C15.7548 8.41937 14.2952 9.79288 14.2952 11.4883C14.2952 11.7315 14.3256 11.9676 14.3788 12.1894C11.6725 12.0606 9.26272 10.8373 7.65871 8.98451C7.37744 9.4352 7.2178 9.96457 7.2178 10.5226C7.2178 11.5885 7.78794 12.5328 8.66977 13.0693C8.13003 13.0693 7.6283 12.9262 7.18739 12.7116C7.18739 12.7116 7.18739 12.7116 7.18739 12.7331C7.18739 14.221 8.31247 15.4658 9.80245 15.7448C9.52878 15.8163 9.23991 15.8521 8.94343 15.8521C8.73818 15.8521 8.53293 15.8306 8.33528 15.7948C8.74578 17.0038 9.93929 17.9052 11.3761 17.9266C10.2662 18.7565 8.85981 19.2429 7.32422 19.2429C7.06576 19.2429 6.80729 19.2286 6.54883 19.2C7.99319 20.0728 9.71123 20.5807 11.5509 20.5807C17.5412 20.5807 20.8328 15.9021 20.8328 11.846C20.8328 11.7101 20.8328 11.5813 20.8252 11.4454C21.4638 11.0162 22.0111 10.4725 22.4521 9.85011Z" fill="#3EDFCF"/>
</g>
</svg>
