<svg width="58" height="21" viewBox="0 0 58 21" fill="none" xmlns="http://www.w3.org/2000/svg">
<g opacity="0.8">
<path d="M3.02729 15.7213C2.08391 15.1921 1.37971 14.4613 0.914689 13.5289C0.449673 12.5965 0.217773 11.4961 0.217773 10.2301V2.00293H3.49231V10.0417C3.49231 11.1973 3.75942 12.0949 4.29486 12.7357C4.83029 13.3765 5.65348 13.6957 6.76685 13.6957C7.51355 13.6957 8.12547 13.5457 8.60506 13.2469C9.08343 12.9481 9.42946 12.5305 9.64072 11.9941C9.85198 11.4589 9.95761 10.8217 9.95761 10.0837V2.00293H13.2115V10.2097C13.2115 11.4625 12.9723 12.5629 12.4927 13.5085C12.0132 14.4553 11.281 15.1933 10.2951 15.7225C9.30926 16.2517 8.08419 16.5157 6.61873 16.5157C5.15326 16.5157 3.97068 16.2505 3.02729 15.7225V15.7213Z" fill="white"/>
<path d="M16.2954 8.20442H14.4365L14.4159 7.80722C14.8663 7.50122 15.2889 7.17722 15.6835 6.83642C16.0781 6.49562 16.5006 6.08882 16.951 5.61482C17.331 5.19722 17.6759 4.77602 17.9867 4.35122C18.2963 3.92642 18.6484 3.38762 19.043 2.73242H19.4449V5.59322H22.1075V8.20322H19.4449V12.4416C19.4449 12.7068 19.4691 12.912 19.5189 13.0572C19.5687 13.2036 19.6634 13.3116 19.8043 13.3812C19.9451 13.4508 20.1563 13.4856 20.438 13.4856H22.2337V16.2H19.4024C18.7407 16.2 18.1797 16.092 17.7232 15.876C17.2655 15.66 16.9134 15.3012 16.6669 14.8008C16.4204 14.2992 16.2978 13.632 16.2978 12.7956V8.20202L16.2954 8.20442Z" fill="white"/>
<path d="M24.3549 3.86044C24.0659 3.70804 23.8401 3.49564 23.6786 3.22324C23.5171 2.95204 23.4358 2.65564 23.4358 2.33524C23.4358 2.01484 23.4916 1.75084 23.6046 1.50004C23.7175 1.24924 23.8644 1.04764 24.0477 0.894043H26.5404C26.7237 1.04764 26.8682 1.24924 26.9738 1.50004C27.0794 1.75084 27.1316 2.02924 27.1316 2.33524C27.1316 2.64124 27.0539 2.95084 26.8997 3.22324C26.7443 3.49444 26.5234 3.70684 26.2344 3.86044C25.9454 4.01404 25.6322 4.08964 25.2946 4.08964C24.9571 4.08964 24.6426 4.01284 24.3549 3.86044ZM24.7034 5.99044C25.0834 6.07444 25.4598 6.07444 25.8337 5.99044C26.2065 5.90644 26.5416 5.75404 26.8378 5.53084V16.2012H23.6895V5.53084C23.9858 5.75404 24.3233 5.90644 24.7034 5.99044Z" fill="white"/>
<path d="M28.8873 1.16772H32.0356V16.2025H28.8873V1.16772Z" fill="white"/>
<path d="M34.7504 3.86044C34.4614 3.70804 34.2356 3.49564 34.0741 3.22324C33.9126 2.95204 33.8313 2.65564 33.8313 2.33524C33.8313 2.01484 33.8872 1.75084 34.0001 1.50004C34.113 1.24924 34.2599 1.04764 34.4432 0.894043H36.9359C37.1192 1.04764 37.2637 1.24924 37.3693 1.50004C37.4749 1.75084 37.5271 2.02924 37.5271 2.33524C37.5271 2.64124 37.4494 2.95084 37.2952 3.22324C37.1398 3.49444 36.9189 3.70684 36.6299 3.86044C36.3409 4.01404 36.0277 4.08964 35.6901 4.08964C35.3526 4.08964 35.0382 4.01284 34.7504 3.86044ZM35.0989 5.99044C35.4789 6.07444 35.8553 6.07444 36.2292 5.99044C36.602 5.90644 36.9371 5.75404 37.2333 5.53084V16.2012H34.0851V5.53084C34.3813 5.75404 34.7188 5.90644 35.0989 5.99044Z" fill="white"/>
<path d="M40.2541 8.20442H38.3953L38.3746 7.80722C38.8251 7.50122 39.2476 7.17722 39.6422 6.83642C40.0368 6.49562 40.4593 6.08882 40.9098 5.61482C41.2898 5.19722 41.6346 4.77602 41.9454 4.35122C42.255 3.92642 42.6071 3.38762 43.0017 2.73242H43.4036V5.59322H46.0662V8.20322H43.4036V12.4416C43.4036 12.7068 43.4279 12.912 43.4777 13.0572C43.5274 13.2036 43.6222 13.3116 43.763 13.3812C43.9038 13.4508 44.1151 13.4856 44.3968 13.4856H46.1925V16.2H43.3611C42.6994 16.2 42.1385 16.092 41.682 15.876C41.2242 15.66 40.8721 15.3012 40.6256 14.8008C40.3792 14.2992 40.2566 13.632 40.2566 12.7956V8.20202L40.2541 8.20442Z" fill="white"/>
<path d="M48.0282 17.8309L48.0707 17.7889H52.0846C52.3663 17.7889 52.5921 17.7649 52.7609 17.7157C52.9296 17.6665 53.0705 17.5801 53.1834 17.4541C53.2963 17.3293 53.3874 17.1409 53.4578 16.8901L53.6897 16.2013H49.8652L46.4631 5.59326H49.8008L52.0822 13.7785H52.3991L54.8079 5.59326H57.9987L53.9629 17.5585C53.7516 18.2125 53.4979 18.7525 53.2028 19.1773C52.9066 19.6021 52.5156 19.9429 52.03 20.2009C51.5443 20.4589 50.9348 20.5873 50.2027 20.5873H48.0269V17.8309H48.0282Z" fill="white"/>
</g>
</svg>
