<svg width="52.7" height="23.5" viewBox="0 0 477 165" fill="none" xmlns="http://www.w3.org/2000/svg">
<path d="M23.3294 124.01C15.5594 119.6 9.75944 113.51 5.92944 105.74C2.09944 97.9699 0.189453 88.7999 0.189453 78.2499V9.68994H27.1595V76.6799C27.1595 86.3099 29.3594 93.7899 33.7694 99.1299C38.1794 104.47 44.9595 107.13 54.1295 107.13C60.2795 107.13 65.3194 105.88 69.2694 103.39C73.2094 100.9 76.0594 97.4199 77.7994 92.9499C79.5394 88.4899 80.4095 83.1799 80.4095 77.0299V9.68994H107.209V78.0799C107.209 88.5199 105.239 97.6899 101.289 105.57C97.3395 113.46 91.3095 119.61 83.1895 124.02C75.0695 128.43 64.9795 130.63 52.9095 130.63C40.8395 130.63 31.0994 128.42 23.3294 124.02V124.01Z" fill="#FFFEFB"/>
<path d="M132.609 61.37H117.299L117.129 58.06C120.839 55.51 124.319 52.81 127.569 49.97C130.819 47.13 134.299 43.74 138.009 39.79C141.139 36.31 143.979 32.8 146.539 29.26C149.089 25.72 151.989 21.23 155.239 15.77H158.549V39.61H180.479V61.36H158.549V96.68C158.549 98.89 158.749 100.6 159.159 101.81C159.569 103.03 160.349 103.93 161.509 104.51C162.669 105.09 164.409 105.38 166.729 105.38H181.519V128H158.199C152.749 128 148.129 127.1 144.369 125.3C140.599 123.5 137.699 120.51 135.669 116.34C133.639 112.16 132.629 106.6 132.629 99.63V61.35L132.609 61.37Z" fill="#FFFEFB"/>
<path d="M198.99 25.17C196.61 23.9 194.75 22.13 193.42 19.86C192.09 17.6 191.42 15.13 191.42 12.46C191.42 9.78995 191.88 7.58995 192.81 5.49995C193.74 3.40995 194.95 1.72995 196.46 0.449951H216.99C218.5 1.72995 219.69 3.40995 220.56 5.49995C221.43 7.58995 221.86 9.90995 221.86 12.46C221.86 15.01 221.22 17.59 219.95 19.86C218.67 22.12 216.85 23.89 214.47 25.17C212.09 26.45 209.51 27.08 206.73 27.08C203.95 27.08 201.36 26.44 198.99 25.17ZM201.86 42.92C204.99 43.62 208.09 43.62 211.17 42.92C214.24 42.22 217 40.95 219.44 39.09V128.01H193.51V39.09C195.95 40.95 198.73 42.22 201.86 42.92Z" fill="#FFFEFB"/>
<path d="M236.32 2.72998H262.25V128.02H236.32V2.72998Z" fill="#FFFEFB"/>
<path d="M284.609 25.17C282.229 23.9 280.369 22.13 279.039 19.86C277.709 17.6 277.039 15.13 277.039 12.46C277.039 9.78995 277.499 7.58995 278.429 5.49995C279.359 3.40995 280.569 1.72995 282.079 0.449951H302.609C304.119 1.72995 305.309 3.40995 306.179 5.49995C307.049 7.58995 307.479 9.90995 307.479 12.46C307.479 15.01 306.839 17.59 305.569 19.86C304.289 22.12 302.469 23.89 300.089 25.17C297.709 26.45 295.129 27.08 292.349 27.08C289.569 27.08 286.979 26.44 284.609 25.17ZM287.479 42.92C290.609 43.62 293.709 43.62 296.789 42.92C299.859 42.22 302.619 40.95 305.059 39.09V128.01H279.129V39.09C281.569 40.95 284.349 42.22 287.479 42.92Z" fill="#FFFEFB"/>
<path d="M329.939 61.37H314.629L314.459 58.06C318.169 55.51 321.649 52.81 324.899 49.97C328.149 47.13 331.629 43.74 335.339 39.79C338.469 36.31 341.309 32.8 343.869 29.26C346.419 25.72 349.319 21.23 352.569 15.77H355.879V39.61H377.809V61.36H355.879V96.68C355.879 98.89 356.079 100.6 356.489 101.81C356.899 103.03 357.679 103.93 358.839 104.51C359.999 105.09 361.739 105.38 364.059 105.38H378.849V128H355.529C350.079 128 345.459 127.1 341.699 125.3C337.929 123.5 335.029 120.51 332.999 116.34C330.969 112.16 329.959 106.6 329.959 99.63V61.35L329.939 61.37Z" fill="#FFFEFB"/>
<path d="M393.97 141.59L394.32 141.24H427.38C429.7 141.24 431.56 141.04 432.95 140.63C434.34 140.22 435.5 139.5 436.43 138.45C437.36 137.41 438.11 135.84 438.69 133.75L440.6 128.01H409.1L381.08 39.6099H408.57L427.36 107.82H429.97L449.81 39.6099H476.09L442.85 139.32C441.11 144.77 439.02 149.27 436.59 152.81C434.15 156.35 430.93 159.19 426.93 161.34C422.93 163.49 417.91 164.56 411.88 164.56H393.96V141.59H393.97Z" fill="#FFFEFB"/>
</svg>
