<svg width="113" height="23" viewBox="0 0 113 23" fill="none" xmlns="http://www.w3.org/2000/svg">
<path d="M67.5741 3.56152L65.8328 10.7453L65.792 10.9181L65.5603 11.8758L65.0044 14.167L64.9418 14.4277L64.8791 14.167L64.0507 10.7453L64.0071 10.5641L63.7482 9.49949L62.3121 3.56152H58.7996L60.094 8.90953L60.2902 9.72175L61.4783 14.6307L61.6527 15.3442L62.2222 17.7012H66.6994C66.6994 17.9427 66.6503 18.1732 66.5604 18.3845C66.4732 18.5958 66.3424 18.7878 66.1844 18.947C65.8655 19.268 65.4268 19.4656 64.9418 19.4656H58.7778V22.9998H61.2494C63.0206 22.9011 64.6202 22.1355 65.8001 20.9556C65.8056 20.9501 65.811 20.9446 65.8165 20.9391C66.6939 20.0583 67.337 18.947 67.6531 17.7012H67.6613L68.2281 15.3661L68.408 14.6143L71.0866 3.56152H67.5741Z" fill="black"/>
<path d="M14.0283 0.019043V10.748C13.9983 12.6523 13.2189 14.37 11.9763 15.6213C11.5458 16.0576 11.0553 16.4362 10.5239 16.7436C10.5212 16.7436 10.5185 16.7491 10.5157 16.7436C9.4857 17.3445 8.29215 17.6875 7.01686 17.6875C3.14192 17.6875 0 14.5264 0 10.6245V0.019043H3.51252V10.6245C3.51252 12.5755 5.07939 14.1533 7.01686 14.1533C7.98423 14.1533 8.85895 13.7581 9.49388 13.1215C10.107 12.5014 10.4939 11.6535 10.5157 10.7151C10.5157 10.6849 10.5157 10.6547 10.5157 10.6245C10.5157 10.5943 10.5157 10.5641 10.5157 10.534V0.019043H14.0283Z" fill="black"/>
<path d="M38.6294 0H35.1196V17.6767H38.6294V0Z" fill="black"/>
<path d="M26.4568 14.1394C26.4187 14.1449 26.3778 14.1449 26.3369 14.1449C26.2961 14.1449 26.2552 14.1449 26.217 14.1394H26.4568Z" fill="black"/>
<path opacity="0.53" d="M14.031 10.6279C14.031 10.6692 14.031 10.7105 14.0283 10.749V10.5068C14.031 10.5481 14.031 10.5866 14.031 10.6279Z" fill="black"/>
<path opacity="0.53" d="M21.0804 13.9802V14.3424C21.0777 14.2821 21.075 14.2217 21.075 14.1613C21.075 14.101 21.075 14.0406 21.0804 13.9802Z" fill="black"/>
<path opacity="0.53" d="M24.7892 17.6768C24.7183 17.6823 24.6475 17.685 24.5739 17.685C24.5003 17.685 24.4295 17.6823 24.3586 17.6768H24.7892Z" fill="black"/>
<path d="M24.7649 14.1397C24.7268 14.1452 24.6859 14.1452 24.645 14.1452C24.6042 14.1452 24.5633 14.1452 24.5251 14.1397C23.6695 14.0821 22.9855 13.4098 22.8983 12.5564C22.8929 12.4961 22.8901 12.4357 22.8901 12.3753C22.8901 12.315 22.8929 12.2546 22.8983 12.1942V7.07397H26.3727V3.53973H22.8983V0H21.8928C21.2551 1.31436 20.4049 2.50799 19.3885 3.5315V3.53698H19.3831C18.3557 4.56872 17.1622 5.43033 15.8406 6.07516V7.07397H19.3885V14.3428C19.4784 16.1318 20.8954 17.5697 22.6667 17.6767H26.4081V14.1397H24.7649Z" fill="black"/>
<path d="M55.3909 14.1729C55.3528 14.1784 55.3119 14.1784 55.271 14.1784C55.2301 14.1784 55.1893 14.1784 55.1511 14.1729C54.2955 14.1153 53.6115 13.443 53.5243 12.5896C53.5188 12.5293 53.5161 12.4689 53.5161 12.4085C53.5161 12.3482 53.5188 12.2878 53.5243 12.2274V7.10717H56.9987V3.57293H53.5243V0.0332031H52.5188C51.8811 1.34757 51.0309 2.5412 50.0145 3.5647V3.57019H50.009C48.9817 4.60192 47.7882 5.46353 46.4666 6.10837V7.10717H50.0145V14.376C50.1044 16.165 51.5214 17.6029 53.2927 17.7099H57.0341V14.1729H55.3909Z" fill="black"/>
<path d="M111.357 14.1729C111.319 14.1784 111.278 14.1784 111.237 14.1784C111.196 14.1784 111.155 14.1784 111.117 14.1729C110.261 14.1153 109.577 13.443 109.49 12.5896C109.485 12.5293 109.482 12.4689 109.482 12.4085C109.482 12.3482 109.485 12.2878 109.49 12.2274V7.10717H112.964V3.57293H109.49V0.0332031H108.485C107.847 1.34757 106.997 2.5412 105.98 3.5647V3.57019H105.975C104.948 4.60192 103.754 5.46353 102.432 6.10837V7.10717H105.98V14.376C106.07 16.165 107.487 17.6029 109.258 17.7099H113V14.1729H111.357Z" fill="black"/>
<path d="M30.8141 7.08246C30.1874 7.08246 29.5906 6.96721 29.032 6.76416V17.677H32.5418V6.78337C31.9995 6.9727 31.4191 7.08246 30.8141 7.08246Z" fill="black"/>
<path d="M32.5418 1.80032C32.5418 0.82437 31.7561 0.0332031 30.7869 0.0332031C29.8177 0.0332031 29.032 0.82437 29.032 1.80032C29.032 2.77628 29.8177 3.56744 30.7869 3.56744C31.7561 3.56744 32.5418 2.77628 32.5418 1.80032Z" fill="black"/>
<path d="M43.0605 7.08222C42.4337 7.08222 41.8369 6.96697 41.2783 6.76392V17.6767H44.7881V6.78312C44.2458 6.97246 43.6654 7.08222 43.0605 7.08222Z" fill="black"/>
<path d="M44.7962 1.78079C44.7962 0.804839 44.0105 0.0136719 43.0413 0.0136719C42.0721 0.0136719 41.2864 0.804839 41.2864 1.78079C41.2864 2.75675 42.0721 3.54791 43.0413 3.54791C44.0105 3.54791 44.7962 2.75675 44.7962 1.78079Z" fill="black"/>
<path d="M93.4619 12.529C93.5791 14.1837 95.2032 14.9684 97.0507 14.9684C98.3887 14.9684 99.4869 14.7873 100.555 14.4251L101.089 17.1225C99.773 17.663 98.1816 17.9347 96.4757 17.9347C92.1621 17.9347 89.6851 15.4047 89.6851 11.4095C89.6851 8.1524 91.7016 4.54956 96.1024 4.54956C100.231 4.54956 101.789 7.77922 101.789 10.9513C101.789 11.6455 101.719 12.2354 101.648 12.529H93.4619ZM98.1107 9.79879C98.1189 8.83839 97.6911 7.20024 95.8899 7.20024C94.2167 7.20024 93.5409 8.73961 93.4292 9.79879H98.108H98.1107Z" fill="black"/>
<path d="M83.8264 0.0332031V12.4168L78.5481 0.0332031H76.5562C76.5562 0.0332031 76.5562 0.0414353 76.5562 0.0441793C76.5562 3.22719 75.1964 6.08916 73.03 8.0758V17.7099H76.5398V3.55647L82.5729 17.7099H87.339V0.0332031H83.8292H83.8264Z" fill="black"/>
</svg>
