<svg width="110" height="23" viewBox="0 0 110 23" fill="none" xmlns="http://www.w3.org/2000/svg">
<path d="M65.9566 4.16821L64.2683 11.1278L64.2287 11.2953L64.0041 12.223L63.4651 14.4428L63.4044 14.6953L63.3436 14.4428L62.5404 11.1278L62.4981 10.9523L62.2471 9.92089L60.8548 4.16821H57.4491L58.7041 9.34935L58.8943 10.1362L60.0463 14.892L60.2154 15.5832L60.7676 17.8667H65.1085C65.1085 18.1007 65.061 18.324 64.9738 18.5287C64.8892 18.7333 64.7624 18.9194 64.6092 19.0736C64.3 19.3846 63.8747 19.576 63.4044 19.576H57.428V23H59.8243C61.5417 22.9043 63.0926 22.1626 64.2366 21.0195C64.2419 21.0142 64.2472 21.0089 64.2525 21.0036C65.1032 20.1502 65.7268 19.0736 66.0332 17.8667H66.0412L66.5907 15.6045L66.7651 14.8761L69.3623 4.16821H65.9566Z" fill="#FFFEFB"/>
<path d="M14.0397 0.736328V11.1305C14.0106 12.9754 13.255 14.6395 12.0502 15.8517C11.6327 16.2744 11.1572 16.6413 10.6419 16.939C10.6393 16.939 10.6367 16.9443 10.634 16.939C9.63532 17.5212 8.47809 17.8535 7.24159 17.8535C3.48455 17.8535 0.438232 14.7911 0.438232 11.0109V0.736328H3.84387V11.0109C3.84387 12.901 5.36307 14.4295 7.24159 14.4295C8.17953 14.4295 9.02764 14.0467 9.64324 13.43C10.2377 12.8292 10.6129 12.0078 10.634 11.0986C10.634 11.0694 10.634 11.0401 10.634 11.0109C10.634 10.9816 10.634 10.9524 10.634 10.9231V0.736328H14.0397Z" fill="#FFFEFB"/>
<path d="M37.8923 0.717773H34.4893V17.8429H37.8923V0.717773Z" fill="#FFFEFB"/>
<path d="M26.0902 14.4163C26.0532 14.4216 26.0136 14.4216 25.9739 14.4216C25.9343 14.4216 25.8947 14.4216 25.8577 14.4163H26.0902Z" fill="#FFFEFB"/>
<path opacity="0.53" d="M14.0422 11.0137C14.0422 11.0536 14.0422 11.0934 14.0396 11.1307V10.8967C14.0422 10.9366 14.0422 10.9738 14.0422 11.0137Z" fill="#FFFEFB"/>
<path opacity="0.53" d="M20.8774 14.2622V14.6131C20.8747 14.5546 20.8721 14.4961 20.8721 14.4377C20.8721 14.3792 20.8721 14.3207 20.8774 14.2622Z" fill="#FFFEFB"/>
<path opacity="0.53" d="M24.4734 17.843C24.4047 17.8483 24.336 17.851 24.2646 17.851C24.1933 17.851 24.1246 17.8483 24.0559 17.843H24.4734Z" fill="#FFFEFB"/>
<path d="M24.4494 14.4163C24.4125 14.4216 24.3728 14.4216 24.3332 14.4216C24.2936 14.4216 24.2539 14.4216 24.2169 14.4163C23.3873 14.3605 22.7242 13.7092 22.6396 12.8824C22.6343 12.8239 22.6317 12.7654 22.6317 12.707C22.6317 12.6485 22.6343 12.59 22.6396 12.5315V7.57101H26.0083V4.14705H22.6396V0.717773H21.6647C21.0464 1.99113 20.2221 3.14751 19.2366 4.13908V4.14439H19.2313C18.2353 5.14394 17.078 5.97866 15.7966 6.60337V7.57101H19.2366V14.613C19.3238 16.3462 20.6977 17.7392 22.415 17.8429H26.0426V14.4163H24.4494Z" fill="#FFFEFB"/>
<path d="M54.1438 14.4483C54.1068 14.4536 54.0672 14.4536 54.0275 14.4536C53.9879 14.4536 53.9483 14.4536 53.9113 14.4483C53.0817 14.3924 52.4185 13.7411 52.334 12.9144C52.3287 12.8559 52.326 12.7974 52.326 12.7389C52.326 12.6805 52.3287 12.622 52.334 12.5635V7.603H55.7026V4.17903H52.334V0.749756H51.359C50.7408 2.02311 49.9165 3.17949 48.931 4.17106V4.17638H48.9257C47.9296 5.17592 46.7724 6.01064 45.491 6.63535V7.603H48.931V14.645C49.0182 16.3782 50.392 17.7712 52.1094 17.8749H55.737V14.4483H54.1438Z" fill="#FFFEFB"/>
<path d="M108.407 14.4483C108.37 14.4536 108.33 14.4536 108.291 14.4536C108.251 14.4536 108.211 14.4536 108.174 14.4483C107.345 14.3924 106.682 13.7411 106.597 12.9144C106.592 12.8559 106.589 12.7974 106.589 12.7389C106.589 12.6805 106.592 12.622 106.597 12.5635V7.603H109.966V4.17903H106.597V0.749756H105.622C105.004 2.02311 104.18 3.17949 103.194 4.17106V4.17638H103.189C102.193 5.17592 101.036 6.01064 99.7542 6.63535V7.603H103.194V14.645C103.281 16.3782 104.655 17.7712 106.373 17.8749H110V14.4483H108.407Z" fill="#FFFEFB"/>
<path d="M30.3148 7.57912C29.7072 7.57912 29.1285 7.46747 28.5869 7.27075V17.843H31.9899V7.28936C31.4641 7.47279 30.9014 7.57912 30.3148 7.57912Z" fill="#FFFEFB"/>
<path d="M31.9899 2.46174C31.9899 1.51624 31.2281 0.749756 30.2884 0.749756C29.3487 0.749756 28.5869 1.51624 28.5869 2.46174C28.5869 3.40724 29.3487 4.17372 30.2884 4.17372C31.2281 4.17372 31.9899 3.40724 31.9899 2.46174Z" fill="#FFFEFB"/>
<path d="M42.1884 7.57888C41.5807 7.57888 41.0021 7.46723 40.4604 7.27051V17.8428H43.8634V7.28912C43.3377 7.47254 42.7749 7.57888 42.1884 7.57888Z" fill="#FFFEFB"/>
<path d="M43.8713 2.44294C43.8713 1.49744 43.1095 0.730957 42.1698 0.730957C41.23 0.730957 40.4683 1.49744 40.4683 2.44294C40.4683 3.38844 41.23 4.15492 42.1698 4.15492C43.1095 4.15492 43.8713 3.38844 43.8713 2.44294Z" fill="#FFFEFB"/>
<path d="M91.0565 12.8557C91.1701 14.4587 92.7447 15.219 94.5361 15.219C95.8333 15.219 96.8981 15.0436 97.9338 14.6927L98.4516 17.3058C97.1755 17.8295 95.6325 18.0927 93.9786 18.0927C89.7962 18.0927 87.3945 15.6417 87.3945 11.7711C87.3945 8.61567 89.3497 5.12524 93.6166 5.12524C97.6194 5.12524 99.1307 8.25413 99.1307 11.3272C99.1307 11.9998 99.062 12.5713 98.9933 12.8557H91.0565ZM95.5638 10.2107C95.5718 9.28025 95.157 7.69322 93.4106 7.69322C91.7883 7.69322 91.1331 9.18455 91.0248 10.2107H95.5612H95.5638Z" fill="#FFFEFB"/>
<path d="M81.714 0.749756V12.7469L76.5963 0.749756H74.6649C74.6649 0.749756 74.6649 0.757731 74.6649 0.76039C74.6649 3.84408 73.3465 6.61675 71.2461 8.5414V17.8749H74.6491V4.16308L80.4987 17.8749H85.1197V0.749756H81.7167H81.714Z" fill="#FFFEFB"/>
</svg>
