<svg width="87" height="18" viewBox="0 0 87 18" fill="none" xmlns="http://www.w3.org/2000/svg">
<path d="M52.1964 2.97357L50.8623 8.49324L50.831 8.62606L50.6536 9.36188L50.2276 11.1223L50.1796 11.3226L50.1316 11.1223L49.4969 8.49324L49.4635 8.35408L49.2652 7.53604L48.1649 2.97357H45.4737L46.4654 7.08275L46.6158 7.70682L47.526 11.4787L47.6597 12.0268L48.096 13.8379H51.5263C51.5263 14.0234 51.4887 14.2005 51.4198 14.3629C51.353 14.5252 51.2528 14.6728 51.1317 14.7951C50.8874 15.0418 50.5513 15.1936 50.1796 15.1936H45.457V17.9091H47.3507C48.7077 17.8332 49.9333 17.245 50.8373 16.3384C50.8415 16.3342 50.8456 16.33 50.8498 16.3258C51.5221 15.649 52.0148 14.7951 52.257 13.8379H52.2633L52.6975 12.0437L52.8353 11.466L54.8876 2.97357H52.1964Z" fill="#FFFEFB"/>
<path d="M11.1713 0.251709V8.49536C11.1484 9.95856 10.5513 11.2784 9.59921 12.2398C9.26934 12.575 8.89354 12.866 8.48642 13.1021C8.48433 13.1021 8.48224 13.1063 8.48015 13.1021C7.69097 13.5638 6.77651 13.8274 5.79942 13.8274C2.83057 13.8274 0.42334 11.3986 0.42334 8.40049V0.251709H3.11451V8.40049C3.11451 9.89952 4.315 11.1118 5.79942 11.1118C6.54059 11.1118 7.21077 10.8082 7.69723 10.3191C8.16698 9.8426 8.46345 9.19112 8.48015 8.47006C8.48015 8.44687 8.48015 8.42368 8.48015 8.40049C8.48015 8.37729 8.48015 8.3541 8.48015 8.33091V0.251709H11.1713Z" fill="#FFFEFB"/>
<path d="M30.0201 0.236938H27.3311V13.8189H30.0201V0.236938Z" fill="#FFFEFB"/>
<path d="M20.694 11.1013C20.6647 11.1055 20.6334 11.1055 20.6021 11.1055C20.5708 11.1055 20.5395 11.1055 20.5103 11.1013H20.694Z" fill="#FFFEFB"/>
<path opacity="0.53" d="M11.1735 8.40258C11.1735 8.43421 11.1735 8.46583 11.1714 8.49535V8.30981C11.1735 8.34144 11.1735 8.37096 11.1735 8.40258Z" fill="#FFFEFB"/>
<path opacity="0.53" d="M16.5745 10.979V11.2573C16.5724 11.2109 16.5703 11.1645 16.5703 11.1182C16.5703 11.0718 16.5703 11.0254 16.5745 10.979Z" fill="#FFFEFB"/>
<path opacity="0.53" d="M19.4158 13.8189C19.3615 13.8231 19.3072 13.8252 19.2509 13.8252C19.1945 13.8252 19.1402 13.8231 19.0859 13.8189H19.4158Z" fill="#FFFEFB"/>
<path d="M19.3971 11.1013C19.3679 11.1055 19.3366 11.1055 19.3052 11.1055C19.2739 11.1055 19.2426 11.1055 19.2134 11.1013C18.5578 11.057 18.0338 10.5404 17.967 9.88475C17.9628 9.83837 17.9607 9.79199 17.9607 9.7456C17.9607 9.69922 17.9628 9.65283 17.967 9.60645V5.67227H20.6289V2.95671H17.967V0.236938H17.1966C16.708 1.24684 16.0566 2.16397 15.2779 2.95039V2.9546H15.2737C14.4866 3.74734 13.5722 4.40936 12.5596 4.90483V5.67227H15.2779V11.2573C15.3468 12.6319 16.4324 13.7367 17.7895 13.8189H20.6561V11.1013H19.3971Z" fill="#FFFEFB"/>
<path d="M42.862 11.1266C42.8327 11.1308 42.8014 11.1308 42.7701 11.1308C42.7388 11.1308 42.7075 11.1308 42.6782 11.1266C42.0227 11.0823 41.4986 10.5658 41.4318 9.91008C41.4276 9.8637 41.4256 9.81731 41.4256 9.77093C41.4256 9.72455 41.4276 9.67816 41.4318 9.63178V5.6976H44.0938V2.98204H41.4318V0.262268H40.6614C40.1729 1.27217 39.5215 2.1893 38.7427 2.97572V2.97993H38.7386C37.9515 3.77267 37.037 4.43469 36.0244 4.93016V5.6976H38.7427V11.2826C38.8116 12.6573 39.8973 13.762 41.2544 13.8443H44.1209V11.1266H42.862Z" fill="#FFFEFB"/>
<path d="M85.7414 11.1266C85.7121 11.1308 85.6808 11.1308 85.6495 11.1308C85.6182 11.1308 85.5869 11.1308 85.5576 11.1266C84.9021 11.0823 84.378 10.5658 84.3112 9.91008C84.307 9.8637 84.3049 9.81731 84.3049 9.77093C84.3049 9.72455 84.307 9.67816 84.3112 9.63178V5.6976H86.9731V2.98204H84.3112V0.262268H83.5408C83.0523 1.27217 82.4009 2.1893 81.6221 2.97572V2.97993H81.618C80.8309 3.77267 79.9164 4.43469 78.9038 4.93016V5.6976H81.6221V11.2826C81.691 12.6573 82.7767 13.762 84.1337 13.8443H87.0003V11.1266H85.7414Z" fill="#FFFEFB"/>
<path d="M24.0324 5.67865C23.5522 5.67865 23.095 5.5901 22.667 5.43408V13.819H25.3561V5.44884C24.9406 5.59432 24.4959 5.67865 24.0324 5.67865Z" fill="#FFFEFB"/>
<path d="M25.3561 1.62005C25.3561 0.870166 24.7541 0.262268 24.0115 0.262268C23.269 0.262268 22.667 0.870166 22.667 1.62005C22.667 2.36993 23.269 2.97782 24.0115 2.97782C24.7541 2.97782 25.3561 2.36993 25.3561 1.62005Z" fill="#FFFEFB"/>
<path d="M33.4147 5.67859C32.9345 5.67859 32.4773 5.59004 32.0493 5.43402V13.8189H34.7384V5.44878C34.3229 5.59426 33.8782 5.67859 33.4147 5.67859Z" fill="#FFFEFB"/>
<path d="M34.7447 1.60528C34.7447 0.855396 34.1428 0.247498 33.4002 0.247498C32.6576 0.247498 32.0557 0.855396 32.0557 1.60528C32.0557 2.35516 32.6576 2.96305 33.4002 2.96305C34.1428 2.96305 34.7447 2.35516 34.7447 1.60528Z" fill="#FFFEFB"/>
<path d="M72.0304 9.86369C72.1202 11.135 73.3645 11.738 74.78 11.738C75.8051 11.738 76.6465 11.5989 77.4649 11.3206L77.8742 13.3931C76.8657 13.8084 75.6465 14.0171 74.3395 14.0171C71.0345 14.0171 69.1367 12.0732 69.1367 9.00348C69.1367 6.50087 70.6817 3.7326 74.0535 3.7326C77.2165 3.7326 78.4107 6.21413 78.4107 8.65139C78.4107 9.1848 78.3564 9.6381 78.3021 9.86369H72.0304ZM75.5922 7.76588C75.5985 7.02796 75.2707 5.76927 73.8906 5.76927C72.6087 5.76927 72.091 6.95206 72.0054 7.76588H75.5901H75.5922Z" fill="#FFFEFB"/>
<path d="M64.6483 0.262268V9.77726L60.6043 0.262268H59.0781C59.0781 0.262268 59.0781 0.268593 59.0781 0.270702C59.0781 2.71639 58.0363 4.9154 56.3765 6.44185V13.8443H59.0655V2.96939L63.6879 13.8443H67.3395V0.262268H64.6504H64.6483Z" fill="#FFFEFB"/>
</svg>
