<svg width="29" height="29" viewBox="0 0 29 29" fill="none" xmlns="http://www.w3.org/2000/svg">
<g id="Wechat" opacity="0.2">
<circle id="Ellipse 122" cx="14.5" cy="14.5" r="14" stroke="#151C1A" stroke-opacity="0.9"/>
<path id="Vector" d="M12.2786 7.48389C8.59935 7.48389 5.61328 9.84306 5.61328 12.746C5.61328 14.4035 6.57309 15.8682 8.08389 16.8329L7.3907 18.8851L9.61247 17.5696C10.4034 17.8414 11.2744 18.0081 12.1986 18.0081C11.9676 17.4556 11.8342 16.868 11.8342 16.254C11.8342 13.3511 14.6159 10.992 18.0552 10.992C18.2241 10.992 18.3929 10.992 18.5529 11.0183C17.6464 8.96604 15.1936 7.48389 12.2786 7.48389ZM9.61247 9.67643C9.84818 9.67643 10.0742 9.76883 10.2409 9.9333C10.4076 10.0978 10.5012 10.3208 10.5012 10.5534C10.5012 10.786 10.4076 11.0091 10.2409 11.1736C10.0742 11.3381 9.84818 11.4305 9.61247 11.4305C9.37677 11.4305 9.15073 11.3381 8.98406 11.1736C8.8174 11.0091 8.72377 10.786 8.72377 10.5534C8.72377 10.3208 8.8174 10.0978 8.98406 9.9333C9.15073 9.76883 9.37677 9.67643 9.61247 9.67643ZM14.056 9.67643C14.2917 9.67643 14.5178 9.76883 14.6844 9.9333C14.8511 10.0978 14.9447 10.3208 14.9447 10.5534C14.9447 10.786 14.8511 11.0091 14.6844 11.1736C14.5178 11.3381 14.2917 11.4305 14.056 11.4305C13.8203 11.4305 13.5943 11.3381 13.4276 11.1736C13.2609 11.0091 13.1673 10.786 13.1673 10.5534C13.1673 10.3208 13.2609 10.0978 13.4276 9.9333C13.5943 9.76883 13.8203 9.67643 14.056 9.67643ZM18.0552 11.869C15.1136 11.869 12.723 13.8335 12.723 16.254C12.723 18.6746 15.1136 20.6391 18.0552 20.6391C18.6507 20.6391 19.2194 20.569 19.7527 20.4199L21.6101 21.5161L21.0591 19.8761C22.4543 19.078 23.3875 17.7537 23.3875 16.254C23.3875 13.8335 20.9968 11.869 18.0552 11.869ZM16.2778 14.0615C16.5135 14.0615 16.7395 14.1539 16.9062 14.3184C17.0729 14.4829 17.1665 14.7059 17.1665 14.9385C17.1665 15.1711 17.0729 15.3942 16.9062 15.5587C16.7395 15.7231 16.5135 15.8155 16.2778 15.8155C16.0421 15.8155 15.8161 15.7231 15.6494 15.5587C15.4827 15.3942 15.3891 15.1711 15.3891 14.9385C15.3891 14.7059 15.4827 14.4829 15.6494 14.3184C15.8161 14.1539 16.0421 14.0615 16.2778 14.0615ZM19.8326 14.0615C20.0683 14.0615 20.2944 14.1539 20.461 14.3184C20.6277 14.4829 20.7213 14.7059 20.7213 14.9385C20.7213 15.1711 20.6277 15.3942 20.461 15.5587C20.2944 15.7231 20.0683 15.8155 19.8326 15.8155C19.5969 15.8155 19.3709 15.7231 19.2042 15.5587C19.0376 15.3942 18.9439 15.1711 18.9439 14.9385C18.9439 14.7059 19.0376 14.4829 19.2042 14.3184C19.3709 14.1539 19.5969 14.0615 19.8326 14.0615Z" fill="#151C1A" fill-opacity="0.9"/>
</g>
</svg>
