<svg width="29" height="29" viewBox="0 0 29 29" fill="none" xmlns="http://www.w3.org/2000/svg">
<g id="Youtube" opacity="0.2">
<circle id="Ellipse 121" cx="14.5" cy="14.5" r="14" stroke="#151C1A" stroke-opacity="0.9"/>
<path id="Vector" d="M12.9101 17.3733L17.037 14.9678L12.9101 12.5622V17.3733ZM22.1022 11.0949C22.2056 11.4717 22.2771 11.9769 22.3248 12.6184C22.3805 13.2598 22.4043 13.8131 22.4043 14.2942L22.4521 14.9678C22.4521 16.7238 22.3248 18.0148 22.1022 18.8407C21.9034 19.5623 21.4422 20.0274 20.7266 20.2279C20.3528 20.3321 19.669 20.4043 18.6194 20.4524C17.5857 20.5085 16.6394 20.5326 15.7647 20.5326L14.5004 20.5807C11.1687 20.5807 9.09334 20.4524 8.27433 20.2279C7.55868 20.0274 7.09749 19.5623 6.8987 18.8407C6.79533 18.4638 6.72376 17.9586 6.67605 17.3172C6.62039 16.6757 6.59654 16.1224 6.59654 15.6413L6.54883 14.9678C6.54883 13.2117 6.67605 11.9208 6.8987 11.0949C7.09749 10.3732 7.55868 9.90813 8.27433 9.70767C8.64805 9.60343 9.33189 9.53126 10.3815 9.48315C11.4152 9.42702 12.3615 9.40297 13.2361 9.40297L14.5004 9.35486C17.8322 9.35486 19.9075 9.48315 20.7266 9.70767C21.4422 9.90813 21.9034 10.3732 22.1022 11.0949Z" fill="#151C1A" fill-opacity="0.9"/>
</g>
</svg>
