<svg width="24" height="24" viewBox="0 0 24 24" fill="none" xmlns="http://www.w3.org/2000/svg">
<g id="Discord Outline">
<path id="Vector" d="M19.8944 4.34399C18.5184 3.71467 17.057 3.256 15.5317 3C15.3397 3.33067 15.1263 3.77866 14.977 4.13067C13.3546 3.89599 11.7439 3.89599 10.1439 4.13067C9.9946 3.77866 9.77059 3.33067 9.58925 3C8.05328 3.256 6.59194 3.71467 5.22555 4.34399C2.46289 8.41865 1.71622 12.3973 2.08955 16.3226C3.92421 17.6559 5.6949 18.4666 7.43463 19C7.86129 18.424 8.2453 17.8053 8.57597 17.1546C7.94663 16.92 7.3493 16.632 6.7733 16.2906C6.92263 16.184 7.07197 16.0667 7.21064 15.9493C10.688 17.5387 14.4544 17.5387 17.889 15.9493C18.0383 16.0667 18.177 16.184 18.3263 16.2906C17.7503 16.632 17.153 16.92 16.5237 17.1546C16.8543 17.8053 17.2384 18.424 17.665 19C19.4037 18.4666 21.185 17.6559 23.0101 16.3226C23.4687 11.7787 22.2837 7.83202 19.8944 4.34399ZM9.05596 13.9013C8.01061 13.9013 7.15728 12.952 7.15728 11.7893C7.15728 10.6267 7.98928 9.67731 9.05596 9.67731C10.1119 9.67731 10.9759 10.6267 10.9546 11.7893C10.9546 12.952 10.1119 13.9013 9.05596 13.9013ZM16.065 13.9013C15.0197 13.9013 14.1653 12.952 14.1653 11.7893C14.1653 10.6267 14.9983 9.67731 16.065 9.67731C17.121 9.67731 17.985 10.6267 17.9637 11.7893C17.9637 12.952 17.1317 13.9013 16.065 13.9013Z" stroke="#3EDFCF" stroke-opacity="0.9" stroke-width="1.5" stroke-linejoin="round"/>
</g>
</svg>
