<svg width="48" height="48" viewBox="0 0 48 48" fill="none" xmlns="http://www.w3.org/2000/svg">
<mask id="mask0_207_2400" style="mask-type:alpha" maskUnits="userSpaceOnUse" x="0" y="0" width="48" height="48">
<circle cx="24" cy="24" r="24" fill="#151C1A" fill-opacity="0.9"/>
</mask>
<g mask="url(#mask0_207_2400)">
<mask id="mask1_207_2400" style="mask-type:luminance" maskUnits="userSpaceOnUse" x="10" y="8" width="28" height="31">
<path d="M37.4062 8H10.5955V39H37.4062V8Z" fill="white"/>
</mask>
<g mask="url(#mask1_207_2400)">
<path d="M19.5354 31.253L15.0618 28.6653V23.4978L10.5963 20.9165V31.253L24.0025 39.0018V28.6653L19.537 26.0856V31.253H19.5354Z" fill="#89D1CD"/>
<path d="M24.0031 23.4961L19.5376 26.0838L24.0031 28.6636L28.4767 26.0838L24.0031 23.4961Z" fill="#9EB3CF"/>
<path d="M15.0618 18.3286L10.5963 20.9164L15.0618 23.4961L19.5354 20.9164L15.0618 18.3286Z" fill="#9EB3CF"/>
<path d="M32.9411 18.3286L28.4756 20.9164L32.9411 23.4961L37.4066 20.9164L32.9411 18.3286Z" fill="#9EB3CF"/>
<path d="M24.0031 13.1675L19.5376 15.7472L24.0031 18.3349L28.4767 15.7472L24.0031 13.1675Z" fill="#9EB3CF"/>
<path d="M15.062 23.4959V28.6633L19.5356 31.2511V20.9146" fill="white"/>
<path d="M24.0017 18.3363V23.5038L28.4753 26.0835V15.7485" fill="white"/>
<path d="M32.9411 23.5039V28.6714L28.4756 31.2511V20.9146" fill="#E0F2F4"/>
<path d="M24.0031 18.3363V23.5038L19.5376 26.0835V15.7485" fill="#E0F2F4"/>
<path d="M24.0025 8L10.5963 15.7488L24.0025 23.5056L37.4087 15.7488L24.0025 8Z" fill="#DBD8EC"/>
<path d="M10.5963 15.7485V20.916L15.0618 23.5038V28.6712L19.5354 31.2509V26.0835L24.0009 28.6712V23.5038L10.5963 15.7485Z" fill="#F3EFE8"/>
<path d="M24.0017 23.5038V28.6712L28.4753 26.0835V31.2509L32.9408 28.6712V23.5038L37.4063 20.916V15.7485L24.0001 23.5054L24.0017 23.5038Z" fill="#B1DCBE"/>
<path d="M19.536 31.2529L24.0015 28.6732L19.536 26.0854V31.2529Z" fill="#89D1CD"/>
<path d="M32.9408 23.4959V28.6633L28.4753 31.2511V26.0836L24.0017 28.6633V38.9999L37.4079 31.2511V20.9146L32.9424 23.4943L32.9408 23.4959Z" fill="#3188B2"/>
</g>
</g>
</svg>
