<svg xmlns="http://www.w3.org/2000/svg" width="49" height="42" viewBox="0 0 49 42" fill="none">
  <path d="M17.3064 37.2806H7.64148V27.6045H17.3064V37.2806ZM8.95822 35.9623H15.9896V28.9228H8.95822V35.9623Z" fill="#3EDFCF"/>
  <path d="M27.7346 42.0001L18.5175 38.9417L21.5723 29.7139L30.7895 32.7722L27.7346 42.0001ZM20.1765 38.1244L26.8919 40.3391L29.1041 33.6159L22.3887 31.4013L20.1765 38.1244Z" fill="#3EDFCF"/>
  <path d="M11.6443 26.3915H0.293945V15.0281H11.6443V26.3915ZM1.61069 25.0733H10.3275V16.3463H1.61069V25.0733Z" fill="#3EDFCF"/>
  <path d="M24.6535 26.3915H13.3032V15.0281H24.6535V26.3915ZM14.6199 25.0733H23.3368V16.3463H14.6199V25.0733Z" fill="#3EDFCF"/>
  <path d="M13.3564 11.9433H5.27158V3.84912H13.3564V11.9433ZM6.58832 10.625H12.0396V5.16739H6.58832V10.625Z" fill="#3EDFCF"/>
  <path d="M17.8072 14.0264L14.7524 3.08475L25.6813 0L28.7362 10.9416L17.8072 14.0264ZM16.3588 3.98117L18.7026 12.3917L27.1034 10.0452L24.7596 1.63465L16.3588 3.98117Z" fill="#3EDFCF"/>
  <path d="M27.2085 20.7757L35.5829 15.9245L43.9838 11.0732V20.7757V30.4781L35.5829 25.6269L27.2085 20.7757Z" fill="#3EDFCF"/>
  <path d="M44.6424 31.612L25.892 20.7759L44.6424 9.9397V31.612ZM28.5255 20.7759L43.3256 29.3446V12.2335L28.5255 20.8022V20.7759Z" fill="#3EDFCF"/>
  <path d="M40.0598 20.7756L44.089 18.4554L48.1183 16.1353V20.7756V25.4422L44.089 23.1221L40.0598 20.7756Z" fill="#3EDFCF"/>
  <path d="M48.7766 26.5761L38.743 20.7757L48.7766 14.9753V26.5761ZM41.3765 20.7757L47.4599 24.2823V17.2428L41.3765 20.7494V20.7757Z" fill="#3EDFCF"/>
</svg>