<svg xmlns="http://www.w3.org/2000/svg" width="44" height="44" viewBox="0 0 44 44" fill="none">
  <path fill-rule="evenodd" clip-rule="evenodd" d="M0.206879 0H11.6998L12.3361 11.9906L0.206879 11.5131V0ZM1.24282 1.03714V10.5159L11.2413 10.9096L10.7174 1.03714H1.24282Z" fill="#3EDFCF"/>
  <path fill-rule="evenodd" clip-rule="evenodd" d="M10.6624 0H22.0999L24.7202 10.8354L11.2999 12.0135L10.6624 0ZM11.7548 1.03714L12.2775 10.8866L23.4299 9.90752L21.2848 1.03714H11.7548Z" fill="#3EDFCF"/>
  <path fill-rule="evenodd" clip-rule="evenodd" d="M21.034 0H32.5564L34.6505 8.10651L23.6961 11.0082L21.034 0ZM22.3507 1.03714L24.454 9.73465L33.3896 7.36768L31.7543 1.03714H22.3507Z" fill="#3EDFCF"/>
  <path fill-rule="evenodd" clip-rule="evenodd" d="M31.4864 0H43.1571V11.7662L33.5857 8.12664L31.4864 0ZM32.8244 1.03714L34.4545 7.34756L42.1212 10.2628V1.03714H32.8244Z" fill="#3EDFCF"/>
  <path fill-rule="evenodd" clip-rule="evenodd" d="M0.206879 10.4751L12.3362 10.9527L11.6975 22.0289H0.206879V10.4751ZM1.24282 11.5538V20.9918H10.7197L11.2412 11.9475L1.24282 11.5538Z" fill="#3EDFCF"/>
  <path fill-rule="evenodd" clip-rule="evenodd" d="M24.6242 9.80267L23.9865 21.7271L10.6591 22.0421L11.2974 10.9726L24.6242 9.80267ZM12.28 11.9275L11.7581 20.9787L23.0033 20.7129L23.5259 10.9402L12.28 11.9275Z" fill="#3EDFCF"/>
  <path fill-rule="evenodd" clip-rule="evenodd" d="M34.5651 7.05631L34.0224 20.9127L22.9461 21.7833L23.578 9.9667L34.5651 7.05631ZM24.5721 10.7762L24.0437 20.6567L33.0233 19.9508L33.475 8.41789L24.5721 10.7762Z" fill="#3EDFCF"/>
  <path fill-rule="evenodd" clip-rule="evenodd" d="M33.5307 6.9963L43.1571 10.6567V22.0938L32.9865 20.8905L33.5307 6.9963ZM34.5094 8.47789L34.0592 19.973L42.1212 20.9269V11.3722L34.5094 8.47789Z" fill="#3EDFCF"/>
  <path fill-rule="evenodd" clip-rule="evenodd" d="M0.206879 20.9918H11.8149L9.77512 33.9029L0.206879 32.4522V20.9918ZM1.24282 22.0289V31.5603L8.91268 32.7232L10.6023 22.0289H1.24282Z" fill="#3EDFCF"/>
  <path fill-rule="evenodd" clip-rule="evenodd" d="M24.1756 20.6852L20.8748 32.9303L8.72971 33.8813L10.7645 21.0022L24.1756 20.6852ZM11.6527 22.0186L9.95809 32.7448L20.0651 31.9534L22.8142 21.7548L11.6527 22.0186Z" fill="#3EDFCF"/>
  <path fill-rule="evenodd" clip-rule="evenodd" d="M34.1113 19.8653L32.6177 32.508L19.7867 32.9863L23.09 20.7316L34.1113 19.8653ZM23.8998 21.7083L21.1532 31.8975L31.6931 31.5046L32.9343 20.9982L23.8998 21.7083Z" fill="#3EDFCF"/>
  <path fill-rule="evenodd" clip-rule="evenodd" d="M33.0693 19.8559L43.1571 21.0495V32.5248H31.5725L33.0693 19.8559ZM33.9764 21.0076L32.7382 31.4877H42.1212V21.9713L33.9764 21.0076Z" fill="#3EDFCF"/>
  <path fill-rule="evenodd" clip-rule="evenodd" d="M0.206879 31.4033L9.77925 32.8546L11.8427 43H0.206879V31.4033ZM1.24282 32.6093V41.9629H10.5745L8.90854 33.7716L1.24282 32.6093Z" fill="#3EDFCF"/>
  <path fill-rule="evenodd" clip-rule="evenodd" d="M20.9241 31.8862L22.2773 43H10.7855L8.71945 32.8418L20.9241 31.8862ZM9.96835 33.7843L11.6317 41.9629H21.1074L20.0158 32.9976L9.96835 33.7843Z" fill="#3EDFCF"/>
  <path fill-rule="evenodd" clip-rule="evenodd" d="M32.6734 31.468V43H21.2337L19.8876 31.9447L32.6734 31.468ZM21.0523 32.9391L22.151 41.9629H31.6374V32.5445L21.0523 32.9391Z" fill="#3EDFCF"/>
  <path fill-rule="evenodd" clip-rule="evenodd" d="M31.6374 31.4877H43.1571V43.0208H31.6374V31.4877ZM32.6734 32.5248V41.9836H42.1212V32.5248H32.6734Z" fill="#3EDFCF"/>
  <path d="M33.0877 15.1631C36.0743 15.1631 38.4954 12.7392 38.4954 9.74916C38.4954 6.75915 36.0743 4.33526 33.0877 4.33526C30.1012 4.33526 27.6801 6.75915 27.6801 9.74916C27.6801 12.7392 30.1012 15.1631 33.0877 15.1631Z" fill="#3EDFCF"/>
  <path d="M9.38534 36.466C11.2505 36.466 12.7625 34.9522 12.7625 33.0849C12.7625 31.2176 11.2505 29.7038 9.38534 29.7038C7.52018 29.7038 6.00816 31.2176 6.00816 33.0849C6.00816 34.9522 7.52018 36.466 9.38534 36.466Z" fill="#3EDFCF"/>
</svg>