<svg xmlns="http://www.w3.org/2000/svg" width="44" height="32" viewBox="0 0 44 32" fill="none">
  <path d="M28.38 26.239H10.1263V7.96411H28.38V26.239ZM11.6386 24.7249H26.8677V9.47819H11.6386V24.7249Z" fill="#3EDFCF"/>
  <path d="M33.0685 5.51123C34.5886 5.51123 35.8209 4.2775 35.8209 2.75562C35.8209 1.23373 34.5886 0 33.0685 0C31.5484 0 30.3161 1.23373 30.3161 2.75562C30.3161 4.2775 31.5484 5.51123 33.0685 5.51123Z" fill="#3EDFCF"/>
  <path d="M33.643 11.1131H27.0795V9.97757H32.5088V2.54346H33.643V11.1131Z" fill="#3EDFCF"/>
  <path d="M4.45551 31.5684C5.97563 31.5684 7.20794 30.3346 7.20794 28.8127C7.20794 27.2909 5.97563 26.0571 4.45551 26.0571C2.93538 26.0571 1.70308 27.2909 1.70308 28.8127C1.70308 30.3346 2.93538 31.5684 4.45551 31.5684Z" fill="#3EDFCF"/>
  <path d="M5.03058 29.0399H3.89634V20.4551H10.4598V21.5906H5.03058V29.0399Z" fill="#3EDFCF"/>
  <path d="M41.1147 14.1414C42.6348 14.1414 43.8671 12.9076 43.8671 11.3857C43.8671 9.86386 42.6348 8.63013 41.1147 8.63013C39.5945 8.63013 38.3622 9.86386 38.3622 11.3857C38.3622 12.9076 39.5945 14.1414 41.1147 14.1414Z" fill="#3EDFCF"/>
  <path d="M36.9406 16.3822H28.0331V15.2467H36.4718L40.4644 11.2344L41.2659 12.0368L36.9406 16.3822Z" fill="#3EDFCF"/>
  <path d="M35.7758 25.1487C37.2959 25.1487 38.5282 23.915 38.5282 22.3931C38.5282 20.8712 37.2959 19.6375 35.7758 19.6375C34.2557 19.6375 33.0234 20.8712 33.0234 22.3931C33.0234 23.915 34.2557 25.1487 35.7758 25.1487Z" fill="#3EDFCF"/>
  <path d="M33.9912 21.8328H27.9873V22.9683H33.9912V21.8328Z" fill="#3EDFCF"/>
  <path d="M3.66907 17.1394C5.18919 17.1394 6.4215 15.9057 6.4215 14.3838C6.4215 12.8619 5.18919 11.6282 3.66907 11.6282C2.14895 11.6282 0.916643 12.8619 0.916643 14.3838C0.916643 15.9057 2.14895 17.1394 3.66907 17.1394Z" fill="#3EDFCF"/>
  <path d="M11.4574 13.8232H5.45346V14.9588H11.4574V13.8232Z" fill="#3EDFCF"/>
  <path d="M22.6184 20.7881H12.8639V22.9835H22.6184V20.7881Z" fill="#3EDFCF"/>
</svg>