<svg xmlns="http://www.w3.org/2000/svg" width="44" height="49" viewBox="0 0 44 49" fill="none">
  <path fill-rule="evenodd" clip-rule="evenodd" d="M0.956879 22.4248H43.9071V32.3395C43.9071 41.4827 36.5013 48.8971 27.3687 48.8971H0.956879V22.4248ZM2.44683 23.9165V47.4054H27.3687C35.6784 47.4054 42.4172 40.6589 42.4172 32.3395V23.9165H2.44683Z" fill="#3EDFCF"/>
  <path d="M9.21119 27.6855C11.3946 27.6855 13.1645 25.9135 13.1645 23.7276C13.1645 21.5417 11.3946 19.7697 9.21119 19.7697C7.02783 19.7697 5.25786 21.5417 5.25786 23.7276C5.25786 25.9135 7.02783 27.6855 9.21119 27.6855Z" fill="#3EDFCF"/>
  <path d="M9.21119 18.1984C11.3946 18.1984 13.1645 16.4264 13.1645 14.2405C13.1645 12.0546 11.3946 10.2826 9.21119 10.2826C7.02783 10.2826 5.25786 12.0546 5.25786 14.2405C5.25786 16.4264 7.02783 18.1984 9.21119 18.1984Z" fill="#3EDFCF"/>
  <path d="M18.6873 18.1984C20.8706 18.1984 22.6406 16.4264 22.6406 14.2405C22.6406 12.0546 20.8706 10.2826 18.6873 10.2826C16.5039 10.2826 14.7339 12.0546 14.7339 14.2405C14.7339 16.4264 16.5039 18.1984 18.6873 18.1984Z" fill="#3EDFCF"/>
  <path d="M9.21119 7.91582C11.3946 7.91582 13.1645 6.14381 13.1645 3.95791C13.1645 1.77202 11.3946 0 9.21119 0C7.02783 0 5.25786 1.77202 5.25786 3.95791C5.25786 6.14381 7.02783 7.91582 9.21119 7.91582Z" fill="#3EDFCF"/>
  <path d="M18.6873 27.6855C20.8706 27.6855 22.6406 25.9135 22.6406 23.7276C22.6406 21.5417 20.8706 19.7697 18.6873 19.7697C16.5039 19.7697 14.7339 21.5417 14.7339 23.7276C14.7339 25.9135 16.5039 27.6855 18.6873 27.6855Z" fill="#3EDFCF"/>
  <path d="M28.4415 27.6855C30.6248 27.6855 32.3948 25.9135 32.3948 23.7276C32.3948 21.5417 30.6248 19.7697 28.4415 19.7697C26.2581 19.7697 24.4881 21.5417 24.4881 23.7276C24.4881 25.9135 26.2581 27.6855 28.4415 27.6855Z" fill="#3EDFCF"/>
  <path d="M28.4415 36.7946C30.6248 36.7946 32.3948 35.0226 32.3948 32.8367C32.3948 30.6508 30.6248 28.8788 28.4415 28.8788C26.2581 28.8788 24.4881 30.6508 24.4881 32.8367C24.4881 35.0226 26.2581 36.7946 28.4415 36.7946Z" fill="#3EDFCF"/>
</svg>