<svg xmlns="http://www.w3.org/2000/svg" width="44" height="45" viewBox="0 0 44 45" fill="none">
  <path fill-rule="evenodd" clip-rule="evenodd" d="M6.00745 17.8381C3.79891 17.8381 2.00854 19.6306 2.00854 21.8417C2.00854 24.0528 3.79891 25.8452 6.00745 25.8452C8.21598 25.8452 10.0064 24.0528 10.0064 21.8417C10.0064 19.6306 8.21598 17.8381 6.00745 17.8381ZM0.666626 21.8417C0.666626 18.8886 3.05779 16.4947 6.00745 16.4947C8.9571 16.4947 11.3483 18.8886 11.3483 21.8417C11.3483 24.7947 8.9571 27.1887 6.00745 27.1887C3.05779 27.1887 0.666626 24.7947 0.666626 21.8417Z" fill="#3EDFCF"/>
  <path fill-rule="evenodd" clip-rule="evenodd" d="M21.52 17.8381C19.3115 17.8381 17.5211 19.6306 17.5211 21.8417C17.5211 24.0528 19.3115 25.8452 21.52 25.8452C23.7285 25.8452 25.5189 24.0528 25.5189 21.8417C25.5189 19.6306 23.7285 17.8381 21.52 17.8381ZM16.1792 21.8417C16.1792 18.8886 18.5703 16.4947 21.52 16.4947C24.4696 16.4947 26.8608 18.8886 26.8608 21.8417C26.8608 24.7947 24.4696 27.1887 21.52 27.1887C18.5703 27.1887 16.1792 24.7947 16.1792 21.8417Z" fill="#3EDFCF"/>
  <path d="M6.00745 10.6461C8.58654 10.6461 10.6773 8.5529 10.6773 5.97081C10.6773 3.38873 8.58654 1.29554 6.00745 1.29554C3.42835 1.29554 1.33758 3.38873 1.33758 5.97081C1.33758 8.5529 3.42835 10.6461 6.00745 10.6461Z" fill="#3EDFCF"/>
  <path fill-rule="evenodd" clip-rule="evenodd" d="M37.2651 1.96728C35.0566 1.96728 33.2662 3.75972 33.2662 5.97081C33.2662 8.18191 35.0566 9.97435 37.2651 9.97435C39.4737 9.97435 41.264 8.18191 41.264 5.97081C41.264 3.75972 39.4737 1.96728 37.2651 1.96728ZM31.9243 5.97081C31.9243 3.01774 34.3155 0.623805 37.2651 0.623805C40.2148 0.623805 42.6059 3.01774 42.6059 5.97081C42.6059 8.92388 40.2148 11.3178 37.2651 11.3178C34.3155 11.3178 31.9243 8.92388 31.9243 5.97081Z" fill="#3EDFCF"/>
  <path fill-rule="evenodd" clip-rule="evenodd" d="M21.52 34.8017C19.3115 34.8017 17.5211 36.5941 17.5211 38.8052C17.5211 41.0163 19.3115 42.8088 21.52 42.8088C23.7285 42.8088 25.5189 41.0163 25.5189 38.8052C25.5189 36.5941 23.7285 34.8017 21.52 34.8017ZM16.1792 38.8052C16.1792 35.8522 18.5703 33.4582 21.52 33.4582C24.4696 33.4582 26.8608 35.8522 26.8608 38.8052C26.8608 41.7583 24.4696 44.1522 21.52 44.1522C18.5703 44.1522 16.1792 41.7583 16.1792 38.8052Z" fill="#3EDFCF"/>
  <path fill-rule="evenodd" clip-rule="evenodd" d="M37.2651 34.8017C35.0566 34.8017 33.2662 36.5941 33.2662 38.8052C33.2662 41.0163 35.0566 42.8088 37.2651 42.8088C39.4737 42.8088 41.264 41.0163 41.264 38.8052C41.264 36.5941 39.4737 34.8017 37.2651 34.8017ZM31.9243 38.8052C31.9243 35.8522 34.3155 33.4582 37.2651 33.4582C40.2148 33.4582 42.6059 35.8522 42.6059 38.8052C42.6059 41.7583 40.2148 44.1522 37.2651 44.1522C34.3155 44.1522 31.9243 41.7583 31.9243 38.8052Z" fill="#3EDFCF"/>
  <path d="M37.6766 16.5753L43.6169 26.5707L37.8019 26.6603L31.9869 26.7319L34.8318 21.6446L37.6766 16.5753Z" fill="#3EDFCF"/>
  <path d="M9.83638 34.6136H0.782925V43.6775H9.83638V34.6136Z" fill="#3EDFCF"/>
  <path fill-rule="evenodd" clip-rule="evenodd" d="M16.0301 5.88986L21.9132 0L27.7962 5.88986L21.9132 11.7797L16.0301 5.88986ZM17.9279 5.88986L21.9132 9.87976L25.8984 5.88986L21.9132 1.89995L17.9279 5.88986Z" fill="#3EDFCF"/>
</svg>