<svg xmlns="http://www.w3.org/2000/svg" width="45" height="42" viewBox="0 0 45 42" fill="none">
  <path d="M21.8997 26.6569C25.0422 26.6569 27.5897 24.1064 27.5897 20.9603C27.5897 17.8141 25.0422 15.2637 21.8997 15.2637C18.7572 15.2637 16.2097 17.8141 16.2097 20.9603C16.2097 24.1064 18.7572 26.6569 21.8997 26.6569Z" fill="#3EDFCF"/>
  <path d="M21.8998 27.153C18.4897 27.153 15.7141 24.3741 15.7141 20.9602C15.7141 17.5462 18.4897 14.7673 21.8998 14.7673C25.3098 14.7673 28.0854 17.5462 28.0854 20.9602C28.0854 24.3741 25.3098 27.153 21.8998 27.153ZM21.8998 15.7598C19.0448 15.7598 16.7054 18.0821 16.7054 20.9602C16.7054 23.8382 19.025 26.1605 21.8998 26.1605C24.7745 26.1605 27.0941 23.8382 27.0941 20.9602C27.0941 18.0821 24.7745 15.7598 21.8998 15.7598Z" fill="#3EDFCF"/>
  <path d="M35.7181 37.9704C38.0284 37.9704 39.9013 36.0954 39.9013 33.7823C39.9013 31.4693 38.0284 29.5942 35.7181 29.5942C33.4078 29.5942 31.5349 31.4693 31.5349 33.7823C31.5349 36.0954 33.4078 37.9704 35.7181 37.9704Z" fill="#3EDFCF"/>
  <path d="M35.7183 38.4668C33.141 38.4668 31.0394 36.3628 31.0394 33.7825C31.0394 31.2021 33.141 29.0981 35.7183 29.0981C38.2957 29.0981 40.3972 31.2021 40.3972 33.7825C40.3972 36.3628 38.2957 38.4668 35.7183 38.4668ZM35.7183 30.0906C33.6763 30.0906 32.0307 31.738 32.0307 33.7825C32.0307 35.8269 33.6961 37.4743 35.7183 37.4743C37.7406 37.4743 39.4059 35.8269 39.4059 33.7825C39.4059 31.738 37.7604 30.0906 35.7183 30.0906Z" fill="#3EDFCF"/>
  <path d="M10.8175 41.4838C12.3395 41.4838 13.5733 40.2485 13.5733 38.7248C13.5733 37.2011 12.3395 35.9658 10.8175 35.9658C9.29551 35.9658 8.06171 37.2011 8.06171 38.7248C8.06171 40.2485 9.29551 41.4838 10.8175 41.4838Z" fill="#3EDFCF"/>
  <path d="M10.8368 41.9998C9.70672 41.9998 8.6163 41.4242 8.0017 40.3722C7.56554 39.618 7.44658 38.7446 7.68449 37.8911C7.90258 37.0575 8.4577 36.3429 9.21108 35.9062C10.7773 35.013 12.7599 35.549 13.6719 37.0972C14.564 38.6652 14.0287 40.6501 12.4823 41.5631C11.9669 41.8609 11.4117 41.9998 10.8566 41.9998H10.8368ZM10.8368 36.462C10.4601 36.462 10.0636 36.5613 9.70672 36.7597C9.19125 37.0575 8.81456 37.5537 8.65596 38.1293C8.49735 38.7248 8.57665 39.3202 8.87404 39.8561C9.50846 40.9478 10.8963 41.3051 11.9669 40.6898C13.0573 40.0546 13.4141 38.6652 12.7995 37.5934C12.3832 36.859 11.61 36.462 10.8368 36.462Z" fill="#3EDFCF"/>
  <path d="M4.57233 14.2713C6.45564 14.2713 7.98237 12.7428 7.98237 10.8573C7.98237 8.97185 6.45564 7.44336 4.57233 7.44336C2.68902 7.44336 1.16229 8.97185 1.16229 10.8573C1.16229 12.7428 2.68902 14.2713 4.57233 14.2713Z" fill="#3EDFCF"/>
  <path d="M4.57231 14.7674C2.43112 14.7674 0.666626 13.0207 0.666626 10.8572C0.666626 8.69371 2.4113 6.94702 4.57231 6.94702C6.73332 6.94702 8.47799 8.69371 8.47799 10.8572C8.47799 13.0207 6.73332 14.7674 4.57231 14.7674ZM4.57231 7.95931C2.96642 7.95931 1.65792 9.26933 1.65792 10.8771C1.65792 12.4848 2.96642 13.7948 4.57231 13.7948C6.1782 13.7948 7.4867 12.4848 7.4867 10.8771C7.4867 9.26933 6.1782 7.95931 4.57231 7.95931Z" fill="#3EDFCF"/>
  <path d="M25.6668 5.81581C27.1341 5.81581 28.3235 4.625 28.3235 3.15607C28.3235 1.68714 27.1341 0.496338 25.6668 0.496338C24.1996 0.496338 23.0102 1.68714 23.0102 3.15607C23.0102 4.625 24.1996 5.81581 25.6668 5.81581Z" fill="#3EDFCF"/>
  <path d="M25.667 6.31191C23.9223 6.31191 22.5147 4.90265 22.5147 3.15595C22.5147 1.40926 23.9223 0 25.667 0C27.4117 0 28.8193 1.40926 28.8193 3.15595C28.8193 4.90265 27.4117 6.31191 25.667 6.31191ZM25.667 0.992439C24.4775 0.992439 23.506 1.96503 23.506 3.15595C23.506 4.34688 24.4775 5.31947 25.667 5.31947C26.8566 5.31947 27.828 4.34688 27.828 3.15595C27.828 1.96503 26.8566 0.992439 25.667 0.992439Z" fill="#3EDFCF"/>
  <path d="M40.6558 18.2411C42.5391 18.2411 44.0658 16.7126 44.0658 14.8271C44.0658 12.9416 42.5391 11.4131 40.6558 11.4131C38.7725 11.4131 37.2457 12.9416 37.2457 14.8271C37.2457 16.7126 38.7725 18.2411 40.6558 18.2411Z" fill="#3EDFCF"/>
  <path d="M40.6556 18.7372C38.5144 18.7372 36.7499 16.9905 36.7499 14.827C36.7499 12.6634 38.4946 10.9167 40.6556 10.9167C42.8166 10.9167 44.5613 12.6634 44.5613 14.827C44.5613 16.9905 42.8166 18.7372 40.6556 18.7372ZM40.6556 11.929C39.0497 11.929 37.7412 13.2391 37.7412 14.8468C37.7412 16.4546 39.0497 17.7646 40.6556 17.7646C42.2615 17.7646 43.57 16.4546 43.57 14.8468C43.57 13.2391 42.2615 11.929 40.6556 11.929Z" fill="#3EDFCF"/>
  <path d="M9.7072 40.3724L17.9746 23.898L18.8667 24.3346L11.5907 38.8441L34.5489 32.7505L20.9881 22.0123L21.9595 18.638L5.97995 13.2987L10.7976 37.3753L9.82615 37.5738L4.67145 11.8299L22.2173 17.6853L26.1626 3.94995L43.0938 13.8743L24.2395 19.4121L22.8914 18.9556L22.1181 21.6551L36.7099 33.207L9.7072 40.3923V40.3724ZM23.1491 17.983L24.2395 18.3403L40.5958 13.5369L26.7376 5.41876L23.1491 17.9632V17.983Z" fill="#3EDFCF"/>
  <path d="M24.4914 2.502L4.26007 9.2124L4.57182 10.1545L24.8032 3.44409L24.4914 2.502Z" fill="#3EDFCF"/>
  <path d="M37.84 33.4651L36.8487 33.3063L39.7234 13.7949L40.6949 13.9537L37.84 33.4651Z" fill="#3EDFCF"/>
</svg>