<svg xmlns="http://www.w3.org/2000/svg" width="44" height="39" viewBox="0 0 44 39" fill="none">
  <path d="M36.2778 38.9056H1.68978C1.26252 38.9056 0.916643 38.5594 0.916643 38.1316C0.916643 37.7038 1.26252 37.3576 1.68978 37.3576H36.2778C39.6146 37.3576 42.3206 34.6484 42.3206 31.3078C42.3206 27.9672 39.6146 25.2581 36.2778 25.2581H16.522C12.3104 25.2581 8.89224 21.836 8.89224 17.6195C8.89224 13.403 12.3104 9.98096 16.522 9.98096H43.0937C43.521 9.98096 43.8669 10.3272 43.8669 10.755C43.8669 11.1828 43.521 11.529 43.0937 11.529H16.522C13.1649 11.529 10.4182 14.2586 10.4182 17.6399C10.4182 21.0212 13.1445 23.7507 16.522 23.7507H36.2778C40.4488 23.7507 43.8465 27.1524 43.8465 31.3282C43.8465 35.5039 40.4488 38.9056 36.2778 38.9056Z" fill="#3EDFCF"/>
  <path d="M38.9435 9.36997C41.528 9.36997 43.6231 7.27243 43.6231 4.68498C43.6231 2.09754 41.528 0 38.9435 0C36.3591 0 34.264 2.09754 34.264 4.68498C34.264 7.27243 36.3591 9.36997 38.9435 9.36997Z" fill="#3EDFCF"/>
  <path d="M28.9334 9.36997C31.5178 9.36997 33.6129 7.27243 33.6129 4.68498C33.6129 2.09754 31.5178 0 28.9334 0C26.3489 0 24.2538 2.09754 24.2538 4.68498C24.2538 7.27243 26.3489 9.36997 28.9334 9.36997Z" fill="#3EDFCF"/>
  <path d="M18.862 9.36997C21.4464 9.36997 23.5415 7.27243 23.5415 4.68498C23.5415 2.09754 21.4464 0 18.862 0C16.2775 0 14.1824 2.09754 14.1824 4.68498C14.1824 7.27243 16.2775 9.36997 18.862 9.36997Z" fill="#3EDFCF"/>
  <path d="M9.29857 36.0748C11.883 36.0748 13.9781 33.9773 13.9781 31.3898C13.9781 28.8024 11.883 26.7048 9.29857 26.7048C6.71412 26.7048 4.61902 28.8024 4.61902 31.3898C4.61902 33.9773 6.71412 36.0748 9.29857 36.0748Z" fill="#3EDFCF"/>
</svg>