<svg xmlns="http://www.w3.org/2000/svg" width="44" height="35" viewBox="0 0 44 35" fill="none">
  <path d="M43.4917 29.5567H37.5767V28.2387H42.1753V23.6172H43.4917V29.5567Z" fill="#3EDFCF"/>
  <path d="M34.1185 29.5569H23.7452V28.239H34.1185V29.5569ZM20.2875 29.5569H9.91422V28.239H20.2875V29.5569Z" fill="#3EDFCF"/>
  <path d="M6.4567 29.5567H0.541656V23.6172H1.85806V28.2387H6.4567V29.5567Z" fill="#3EDFCF"/>
  <path d="M1.85806 9.47144H0.541656V20.0852H1.85806V9.47144Z" fill="#3EDFCF"/>
  <path d="M1.85806 5.92189H0.541656V0H6.4567V1.31793H1.85806V5.92189Z" fill="#3EDFCF"/>
  <path d="M34.1185 1.31793H23.7452V0H34.1185V1.31793ZM20.2875 1.31793H9.91422V0H20.2875V1.31793Z" fill="#3EDFCF"/>
  <path d="M43.4917 5.92189H42.1753V1.31793H37.5767V0H43.4917V5.92189Z" fill="#3EDFCF"/>
  <path d="M43.4918 9.47144H42.1754V20.0852H43.4918V9.47144Z" fill="#3EDFCF"/>
  <mask id="mask0_291_2542" style="mask-type:luminance" maskUnits="userSpaceOnUse" x="13" y="6" width="18" height="17">
    <path d="M22.0251 22.9846C26.5521 22.9846 30.2219 19.3105 30.2219 14.7783C30.2219 10.2461 26.5521 6.57202 22.0251 6.57202C17.4982 6.57202 13.8283 10.2461 13.8283 14.7783C13.8283 19.3105 17.4982 22.9846 22.0251 22.9846Z" fill="white"/>
  </mask>
  <g mask="url(#mask0_291_2542)">
    <path d="M31.5563 6.23828H12.4948V7.1169H31.5563V6.23828Z" fill="#3EDFCF"/>
    <path d="M31.5564 8.25903H12.4949V9.13765H31.5564V8.25903Z" fill="#3EDFCF"/>
    <path d="M31.5564 10.28H12.4949V11.1586H31.5564V10.28Z" fill="#3EDFCF"/>
    <path d="M31.5564 12.3181H12.4949V13.1967H31.5564V12.3181Z" fill="#3EDFCF"/>
    <path d="M31.5564 14.3394H12.4949V15.218H31.5564V14.3394Z" fill="#3EDFCF"/>
    <path d="M31.5564 16.3599H12.4949V17.2385H31.5564V16.3599Z" fill="#3EDFCF"/>
    <path d="M31.5564 18.3806H12.4949V19.2592H31.5564V18.3806Z" fill="#3EDFCF"/>
    <path d="M31.5564 20.4019H12.4949V21.2805H31.5564V20.4019Z" fill="#3EDFCF"/>
    <path d="M31.5564 22.4224H12.4949V23.301H31.5564V22.4224Z" fill="#3EDFCF"/>
  </g>
  <path d="M28.6604 30.4707H15.3735V33.9676H28.6604V30.4707Z" fill="#3EDFCF"/>
  <path d="M35.1367 32.72H8.91391V34.4772H35.1367V32.72Z" fill="#3EDFCF"/>
</svg>