<svg xmlns="http://www.w3.org/2000/svg" width="31" height="31" viewBox="0 0 31 31" fill="none">
    <circle cx="15.5" cy="15.5" r="15" stroke="#3EDFCF" />
    <path d="M13.4116 22.7397C13.1584 22.7666 12.9435 22.7935 12.7286 22.8165C11.6119 22.9278 10.6372 22.6246 9.90036 21.7535C9.67011 21.481 9.53964 21.128 9.34393 20.8248C9.04077 20.349 8.72993 19.877 8.39607 19.4203C8.28095 19.263 8.0814 19.1709 7.9279 19.0366C7.87801 18.9944 7.86266 18.9138 7.82812 18.8485C7.8972 18.8217 7.96244 18.7756 8.03151 18.7679C8.91413 18.6874 9.5358 19.0941 9.96943 19.8271C10.5105 20.7404 11.2934 21.2393 12.3563 21.2393C12.6633 21.2393 12.9703 21.1357 13.2735 21.0666C13.3311 21.0512 13.4001 20.963 13.4078 20.8977C13.4615 20.4986 13.5114 20.0995 13.6956 19.735C13.7647 19.6007 13.8453 19.474 13.9259 19.3359C13.615 19.2745 13.3157 19.2284 13.0202 19.1555C11.6579 18.8102 10.5335 18.1271 9.88117 16.83C9.6279 16.3235 9.48591 15.7786 9.46673 15.2106C9.43603 14.3357 9.44754 13.4569 9.62406 12.5935C9.7507 11.9871 9.98095 11.423 10.4414 10.9856C10.5412 10.8896 10.5604 10.8052 10.5067 10.6594C10.2496 9.94176 10.2227 9.21264 10.4414 8.47968C10.4875 8.32235 10.5297 8.16501 10.5758 8C11.6272 8.19955 12.2527 8.90948 12.8399 9.69616C13.4462 9.24718 14.1638 9.2088 14.8622 9.16275C15.6911 9.10903 16.5238 9.12054 17.3489 9.25485C17.7787 9.32393 18.0435 9.41219 18.4618 9.66163C18.8225 9.28939 19.1602 8.91332 19.5324 8.57178C19.8279 8.29932 20.1963 8.12664 20.5954 8.03454C20.7067 8.00767 20.7642 8.01919 20.8103 8.14199C21.1211 8.99007 21.1672 9.83431 20.8256 10.6824C20.7796 10.7975 20.7834 10.8781 20.8794 10.9702C21.432 11.4959 21.6852 12.1752 21.7697 12.9081C21.8464 13.5874 21.8886 14.2704 21.8886 14.9535C21.8886 15.9244 21.6008 16.8147 20.9907 17.5783C20.5609 18.1194 20.0044 18.507 19.3751 18.7986C18.7649 19.0788 18.1279 19.24 17.4679 19.3244C17.4525 19.3282 17.4372 19.3397 17.4103 19.3512C17.8631 19.9998 17.936 20.7289 17.9284 21.4849C17.9168 22.5862 17.9207 23.6837 17.9284 24.7851C17.9284 24.9578 17.8785 25 17.7096 25C16.3473 24.9923 14.985 24.9923 13.6227 25C13.4539 25 13.4001 24.9463 13.4001 24.7813C13.4078 24.1865 13.404 23.5916 13.404 22.9968C13.4116 22.9086 13.4116 22.8318 13.4116 22.7397Z" fill="#3EDFCF" fill-opacity="0.9"/>
</svg>