<svg width="32" height="37" viewBox="0 0 167 193" fill="none" xmlns="http://www.w3.org/2000/svg">
<g clip-path="url(#clip0_8408_13813)">
<mask id="mask0_8408_13813" style="mask-type:luminance" maskUnits="userSpaceOnUse" x="0" y="0" width="167" height="193">
<path d="M166.91 0H0V192.99H166.91V0Z" fill="white"/>
</mask>
<g mask="url(#mask0_8408_13813)">
<path d="M55.65 144.76L27.8 128.65V96.4802L0 80.4102V144.76L83.46 193V128.65L55.66 112.59V144.76H55.65Z" fill="#89D1CD"/>
<path d="M83.4602 96.4697L55.6602 112.58L83.4602 128.64L111.31 112.58L83.4602 96.4697Z" fill="#9EB3CF"/>
<path d="M27.8 64.2998L0 80.4098L27.8 96.4698L55.65 80.4098L27.8 64.2998Z" fill="#9EB3CF"/>
<path d="M139.109 64.2998L111.309 80.4098L139.109 96.4698L166.909 80.4098L139.109 64.2998Z" fill="#9EB3CF"/>
<path d="M83.4602 32.1699L55.6602 48.2299L83.4602 64.3399L111.31 48.2299L83.4602 32.1699Z" fill="#9EB3CF"/>
<path d="M27.8008 96.4704V128.64L55.6508 144.75V80.4004" fill="white"/>
<path d="M83.4609 64.3502V96.5202L111.311 112.58V48.2402" fill="white"/>
<path d="M139.109 96.5204V128.69L111.309 144.75V80.4004" fill="#E0F2F4"/>
<path d="M83.4602 64.3502V96.5202L55.6602 112.58V48.2402" fill="#E0F2F4"/>
<path d="M83.46 0L0 48.24L83.46 96.53L166.92 48.24L83.46 0Z" fill="#DBD8EC"/>
<path d="M0 48.2402V80.4102L27.8 96.5202V128.69L55.65 144.75V112.58L83.45 128.69V96.5202L0 48.2402Z" fill="#F3EFE8"/>
<path d="M83.4592 96.5202V128.69L111.309 112.58V144.75L139.109 128.69V96.5202L166.909 80.4102V48.2402L83.4492 96.5302L83.4592 96.5202Z" fill="#B1DCBE"/>
<path d="M55.6484 144.76L83.4484 128.7L55.6484 112.59V144.76Z" fill="#89D1CD"/>
<path d="M139.111 96.4704V128.64L111.311 144.75V112.58L83.4609 128.64V192.99L166.921 144.75V80.4004L139.121 96.4604L139.111 96.4704Z" fill="#3188B2"/>
</g>
</g>
<defs>
<clipPath id="clip0_8408_13813">
<rect width="166.91" height="192.99" fill="white"/>
</clipPath>
</defs>
</svg>
