<svg xmlns="http://www.w3.org/2000/svg" width="66" height="66" viewBox="0 0 36 36" fill="none">
  <path fill-rule="evenodd" clip-rule="evenodd" d="M18 0C8.05888 0 0 8.05888 0 18C0 27.9411 8.05888 36 18 36C27.9411 36 36 27.9411 36 18C36 8.05888 27.9411 0 18 0ZM14 14C14 13.4477 14.4477 13 15 13C15.5523 13 16 13.4477 16 14V22C16 22.5523 15.5523 23 15 23C14.4477 23 14 22.5523 14 22V14ZM20 14C20 13.4477 20.4477 13 21 13C21.5523 13 22 13.4477 22 14V22C22 22.5523 21.5523 23 21 23C20.4477 23 20 22.5523 20 22V14Z" fill="#3EDFCF"/>
</svg>