<svg width="66" height="66" viewBox="0 0 36 36" fill="none" xmlns="http://www.w3.org/2000/svg">
  <path fill-rule="evenodd" clip-rule="evenodd" d="M18 0C8.05888 0 0 8.05888 0 18C0 27.9411 8.05888 36 18 36C27.9411 36 36 27.9411 36 18C36 8.05888 27.9411 0 18 0ZM11.8704 13.1975L17.5 16.9894V14.4508C17.5 13.4417 18.6696 12.8832 19.4543 13.5175L23.8454 17.0667C23.9024 17.1128 23.9539 17.1628 24 17.216V13.9998C24 13.4475 24.4477 12.9998 25 12.9998C25.5523 12.9998 26 13.4475 26 13.9998V21.9998C26 22.5521 25.5523 22.9998 25 22.9998C24.4477 22.9998 24 22.5521 24 21.9998V18.784C23.9539 18.8372 23.9024 18.8872 23.8454 18.9333L19.4543 22.4825C18.6696 23.1168 17.5 22.5583 17.5 21.5492V19.0102L11.8704 22.8021C11.0733 23.339 10 22.7679 10 21.8069V14.1928C10 13.2317 11.0733 12.6606 11.8704 13.1975Z" fill="#3EDFCF"/>
</svg>
