<svg xmlns="http://www.w3.org/2000/svg" width="31" height="31" viewBox="0 0 31 31" fill="none">
    <circle cx="15.5" cy="15.5" r="15" stroke="#3EDFCF" />
    <path d="M24 10.5294C23.3743 10.7971 22.6998 10.9729 22.001 11.0571C22.7161 10.6518 23.2686 10.0094 23.5287 9.23706C22.8542 9.61941 22.1066 9.88706 21.3184 10.04C20.6764 9.38235 19.7744 9 18.7505 9C16.8408 9 15.2806 10.4682 15.2806 12.2806C15.2806 12.5406 15.3131 12.7929 15.37 13.03C12.4771 12.8924 9.90105 11.5847 8.18642 9.60412C7.88576 10.0859 7.71511 10.6518 7.71511 11.2482C7.71511 12.3876 8.32457 13.3971 9.26721 13.9706C8.69025 13.9706 8.15392 13.8176 7.6826 13.5882C7.6826 13.5882 7.6826 13.5882 7.6826 13.6112C7.6826 15.2018 8.88528 16.5324 10.478 16.8306C10.1855 16.9071 9.87667 16.9453 9.55975 16.9453C9.34034 16.9453 9.12094 16.9224 8.90966 16.8841C9.34847 18.1765 10.6243 19.14 12.1601 19.1629C10.9737 20.05 9.47036 20.57 7.82887 20.57C7.55258 20.57 7.27629 20.5547 7 20.5241C8.54398 21.4571 10.3805 22 12.347 22C18.7505 22 22.2691 16.9988 22.2691 12.6629C22.2691 12.5176 22.2691 12.38 22.261 12.2347C22.9436 11.7759 23.5287 11.1947 24 10.5294Z" fill="#3EDFCF"/>
</svg>