<svg xmlns="http://www.w3.org/2000/svg" width="31" height="31" viewBox="0 0 31 31" fill="none">
    <circle cx="15.5" cy="15.5" r="15" stroke="#3EDFCF"  />
    <path d="M13.125 8C9.192 8 6 10.5219 6 13.625C6 15.3969 7.026 16.9625 8.641 17.9937L7.9 20.1875L10.275 18.7812C11.1205 19.0719 12.0515 19.25 13.0395 19.25C12.7925 18.6594 12.65 18.0312 12.65 17.375C12.65 14.2719 15.6235 11.75 19.3 11.75C19.4805 11.75 19.661 11.75 19.832 11.7781C18.863 9.58437 16.241 8 13.125 8ZM10.275 10.3438C10.527 10.3438 10.7686 10.4425 10.9468 10.6183C11.1249 10.7942 11.225 11.0326 11.225 11.2812C11.225 11.5299 11.1249 11.7683 10.9468 11.9442C10.7686 12.12 10.527 12.2188 10.275 12.2188C10.023 12.2188 9.78141 12.12 9.60325 11.9442C9.42509 11.7683 9.325 11.5299 9.325 11.2812C9.325 11.0326 9.42509 10.7942 9.60325 10.6183C9.78141 10.4425 10.023 10.3438 10.275 10.3438ZM15.025 10.3438C15.277 10.3438 15.5186 10.4425 15.6968 10.6183C15.8749 10.7942 15.975 11.0326 15.975 11.2812C15.975 11.5299 15.8749 11.7683 15.6968 11.9442C15.5186 12.12 15.277 12.2188 15.025 12.2188C14.773 12.2188 14.5314 12.12 14.3532 11.9442C14.1751 11.7683 14.075 11.5299 14.075 11.2812C14.075 11.0326 14.1751 10.7942 14.3532 10.6183C14.5314 10.4425 14.773 10.3438 15.025 10.3438ZM19.3 12.6875C16.1555 12.6875 13.6 14.7875 13.6 17.375C13.6 19.9625 16.1555 22.0625 19.3 22.0625C19.9365 22.0625 20.5445 21.9875 21.1145 21.8281L23.1 23L22.511 21.2469C24.0025 20.3937 25 18.9781 25 17.375C25 14.7875 22.4445 12.6875 19.3 12.6875ZM17.4 15.0312C17.652 15.0312 17.8936 15.13 18.0718 15.3058C18.2499 15.4817 18.35 15.7201 18.35 15.9688C18.35 16.2174 18.2499 16.4558 18.0718 16.6317C17.8936 16.8075 17.652 16.9062 17.4 16.9062C17.148 16.9062 16.9064 16.8075 16.7282 16.6317C16.5501 16.4558 16.45 16.2174 16.45 15.9688C16.45 15.7201 16.5501 15.4817 16.7282 15.3058C16.9064 15.13 17.148 15.0312 17.4 15.0312ZM21.2 15.0312C21.452 15.0312 21.6936 15.13 21.8718 15.3058C22.0499 15.4817 22.15 15.7201 22.15 15.9688C22.15 16.2174 22.0499 16.4558 21.8718 16.6317C21.6936 16.8075 21.452 16.9062 21.2 16.9062C20.948 16.9062 20.7064 16.8075 20.5282 16.6317C20.3501 16.4558 20.25 16.2174 20.25 15.9688C20.25 15.7201 20.3501 15.4817 20.5282 15.3058C20.7064 15.13 20.948 15.0312 21.2 15.0312Z" fill="#3EDFCF" fill-opacity="0.9"/>
</svg>