<svg xmlns="http://www.w3.org/2000/svg" width="31" height="31" viewBox="0 0 31 31" fill="none">
    <circle cx="15.5" cy="15.5" r="15" stroke="#3EDFCF" />
    <path d="M13.8 18.5714L18.2115 16L13.8 13.4286V18.5714ZM23.626 11.86C23.7365 12.2629 23.813 12.8029 23.864 13.4886C23.9235 14.1743 23.949 14.7657 23.949 15.28L24 16C24 17.8771 23.864 19.2571 23.626 20.14C23.4135 20.9114 22.9205 21.4086 22.1555 21.6229C21.756 21.7343 21.025 21.8114 19.903 21.8629C18.798 21.9229 17.7865 21.9486 16.8515 21.9486L15.5 22C11.9385 22 9.72 21.8629 8.8445 21.6229C8.0795 21.4086 7.5865 20.9114 7.374 20.14C7.2635 19.7371 7.187 19.1971 7.136 18.5114C7.0765 17.8257 7.051 17.2343 7.051 16.72L7 16C7 14.1229 7.136 12.7429 7.374 11.86C7.5865 11.0886 8.0795 10.5914 8.8445 10.3771C9.244 10.2657 9.975 10.1886 11.097 10.1371C12.202 10.0771 13.2135 10.0514 14.1485 10.0514L15.5 10C19.0615 10 21.28 10.1371 22.1555 10.3771C22.9205 10.5914 23.4135 11.0886 23.626 11.86Z" fill="#3EDFCF" fill-opacity="0.9"/>
</svg>